<svg data-v-fde0c5aa="" xmlns="http://www.w3.org/2000/svg" viewBox="0 0 300 300" class="font"><!----><defs data-v-fde0c5aa=""><linearGradient data-v-fde0c5aa="" gradientTransform="rotate(25)" id="abd40a6d-a8e2-4f07-bac7-48e3f8eb207c" x1="0%" y1="0%" x2="100%" y2="0%"><stop data-v-fde0c5aa="" offset="0%" stop-color="#2F8632" stop-opacity="1"></stop><stop data-v-fde0c5aa="" offset="100%" stop-color="#BEFF7F" stop-opacity="1"></stop></linearGradient></defs><rect data-v-fde0c5aa="" fill="url(#abd40a6d-a8e2-4f07-bac7-48e3f8eb207c)" x="0" y="0" width="300px" height="300px" class="logo-background-square"></rect><defs data-v-fde0c5aa=""><!----></defs><g data-v-fde0c5aa="" id="7ec28453-1c30-4bb3-a1c9-6bc993ae52e5" fill="#ffffff" transform="matrix(1.8877638430727697,0,0,1.8877638430727697,38.99948521718079,131.89634535703817)"><path d="M6.01 13.58L0.53 13.58L0.53 13.05Q1.06 13.03 1.39 12.97Q1.72 12.91 1.90 12.73Q2.09 12.56 2.15 12.26Q2.21 11.96 2.21 11.45L2.21 11.45L2.21 4.93Q2.21 4.44 2.16 4.14Q2.11 3.84 1.97 3.66Q1.82 3.49 1.54 3.42Q1.26 3.36 0.81 3.33L0.81 3.33L0.81 2.80L5.73 2.80Q6.99 2.80 8.06 3.22Q9.13 3.64 9.90 4.38Q10.68 5.12 11.12 6.15Q11.55 7.17 11.55 8.37L11.55 8.37Q11.55 9.52 11.14 10.48Q10.74 11.44 10.00 12.12Q9.27 12.81 8.25 13.20Q7.22 13.58 6.01 13.58L6.01 13.58ZM5.70 3.49L3.92 3.49Q3.68 3.49 3.68 3.72L3.68 3.72L3.68 11.30Q3.68 12.89 5.77 12.89L5.77 12.89Q7.69 12.89 8.71 11.75Q9.73 10.61 9.73 8.40L9.73 8.40Q9.73 7.24 9.45 6.33Q9.17 5.42 8.64 4.79Q8.12 4.16 7.38 3.82Q6.64 3.49 5.70 3.49L5.70 3.49ZM17.16 10.54L17.16 9.44Q16.37 9.74 15.81 10.04Q15.26 10.33 14.92 10.63Q14.59 10.92 14.44 11.21Q14.29 11.51 14.29 11.82L14.29 11.82Q14.29 12.28 14.60 12.57Q14.91 12.87 15.41 12.87L15.41 12.87Q15.78 12.87 16.09 12.68Q16.41 12.50 16.65 12.19Q16.88 11.87 17.02 11.45Q17.16 11.02 17.16 10.54L17.16 10.54ZM15.15 9.72L17.16 8.83L17.16 8.26Q17.16 6.55 15.71 6.55L15.71 6.55Q15.47 6.55 15.30 6.59Q15.13 6.64 15.02 6.73Q14.91 6.83 14.82 7.01Q14.73 7.20 14.64 7.46L14.64 7.46Q14.49 7.87 14.34 8.00Q14.20 8.13 13.92 8.13L13.92 8.13Q13.22 8.13 13.22 7.43L13.22 7.43Q13.22 6.76 13.93 6.39Q14.64 6.02 15.96 6.02L15.96 6.02Q17.36 6.02 17.95 6.52Q18.54 7.01 18.54 8.20L18.54 8.20L18.54 11.34Q18.54 12.94 19.17 12.94L19.17 12.94Q19.36 12.94 19.54 12.89Q19.73 12.84 19.85 12.63L19.85 12.63L20.05 12.96Q19.88 13.29 19.43 13.50Q18.98 13.72 18.49 13.72L18.49 13.72Q17.88 13.72 17.58 13.33Q17.28 12.94 17.28 12.22L17.28 12.22L17.21 12.22Q16.84 12.91 16.20 13.31Q15.55 13.71 14.77 13.71L14.77 13.71Q13.89 13.71 13.38 13.26Q12.88 12.81 12.88 12.05L12.88 12.05Q12.88 11.72 13.00 11.41Q13.12 11.10 13.38 10.82Q13.65 10.54 14.08 10.27Q14.52 10.00 15.15 9.72L15.15 9.72ZM23.23 6.02L23.23 11.35Q23.23 11.90 23.27 12.23Q23.32 12.56 23.46 12.75Q23.60 12.94 23.86 13.01Q24.11 13.08 24.53 13.09L24.53 13.09L24.53 13.58L20.51 13.58L20.51 13.09Q20.93 13.08 21.20 13.00Q21.46 12.92 21.61 12.75Q21.76 12.57 21.80 12.26Q21.85 11.94 21.85 11.45L21.85 11.45L21.85 9.66Q21.85 8.85 21.83 8.32Q21.81 7.80 21.76 7.60L21.76 7.60Q21.69 7.28 21.43 7.16Q21.18 7.04 20.48 7.04L20.48 7.04L20.48 6.55L23.23 6.02ZM21.62 3.18L21.62 3.18Q21.62 2.81 21.87 2.56Q22.12 2.31 22.48 2.31L22.48 2.31Q22.85 2.31 23.10 2.56Q23.35 2.81 23.35 3.18L23.35 3.18Q23.35 3.54 23.10 3.79Q22.85 4.05 22.48 4.05L22.48 4.05Q22.12 4.05 21.87 3.79Q21.62 3.54 21.62 3.18ZM27.73 1.96L27.73 11.40Q27.73 11.93 27.78 12.25Q27.82 12.57 27.95 12.75Q28.08 12.94 28.33 13.01Q28.57 13.08 28.98 13.09L28.98 13.09L28.98 13.58L25.12 13.58L25.12 13.09Q25.54 13.08 25.79 13.00Q26.04 12.92 26.19 12.75Q26.33 12.59 26.38 12.29Q26.43 11.98 26.43 11.49L26.43 11.49L26.43 5.46Q26.43 4.70 26.41 4.19Q26.39 3.68 26.35 3.50L26.35 3.50Q26.28 3.18 26.02 3.07Q25.76 2.95 25.09 2.95L25.09 2.95L25.09 2.48L27.73 1.96ZM36.26 8.99L33.21 15.78Q32.56 17.22 31.21 17.22L31.21 17.22Q30.32 17.22 30.32 16.56L30.32 16.56Q30.32 16.21 30.57 16.05Q30.81 15.89 31.47 15.78L31.47 15.78Q31.77 15.74 31.98 15.66Q32.19 15.58 32.35 15.46Q32.52 15.34 32.66 15.16Q32.79 14.98 32.91 14.71L32.91 14.71L33.40 13.73L30.72 7.90Q30.53 7.50 30.40 7.27Q30.27 7.04 30.12 6.91Q29.97 6.78 29.79 6.73Q29.61 6.68 29.33 6.65L29.33 6.65L29.33 6.16L33.04 6.16L33.04 6.65Q32.10 6.65 32.10 7.11L32.10 7.11Q32.10 7.29 32.21 7.69Q32.33 8.08 32.49 8.48L32.49 8.48L34.03 12.21L34.10 12.21L35.38 9.06Q35.56 8.60 35.68 8.30Q35.80 8.01 35.86 7.82Q35.92 7.63 35.95 7.50Q35.97 7.38 35.97 7.27L35.97 7.27Q35.97 6.90 35.76 6.78Q35.56 6.65 34.99 6.65L34.99 6.65L34.99 6.16L38.07 6.16L38.07 6.65Q37.80 6.65 37.62 6.72Q37.44 6.79 37.25 7.04Q37.06 7.28 36.83 7.74Q36.60 8.20 36.26 8.99L36.26 8.99ZM43.85 14.18L43.85 4.93Q43.85 4.44 43.80 4.14Q43.75 3.84 43.60 3.66Q43.46 3.49 43.18 3.42Q42.90 3.36 42.45 3.33L42.45 3.33L42.45 2.80L46.70 2.80L46.70 3.33Q46.26 3.35 45.98 3.42Q45.71 3.49 45.56 3.67Q45.42 3.85 45.37 4.17Q45.32 4.49 45.32 5.03L45.32 5.03L45.32 13.61Q45.32 15.37 44.58 16.30Q43.83 17.22 42.41 17.22L42.41 17.22Q41.44 17.22 40.86 16.85Q40.28 16.48 40.28 15.86L40.28 15.86Q40.28 15.50 40.47 15.31Q40.66 15.12 40.99 15.12L40.99 15.12Q41.26 15.12 41.42 15.25Q41.58 15.39 41.79 15.78L41.79 15.78Q42.03 16.23 42.20 16.39Q42.38 16.55 42.66 16.55L42.66 16.55Q43.23 16.55 43.54 15.93Q43.85 15.32 43.85 14.18L43.85 14.18ZM51.51 6.02L51.51 6.02Q52.30 6.02 53.02 6.31Q53.73 6.59 54.27 7.10Q54.81 7.60 55.13 8.29Q55.44 8.99 55.44 9.81L55.44 9.81Q55.44 10.67 55.13 11.38Q54.81 12.10 54.27 12.61Q53.73 13.13 53.02 13.43Q52.30 13.72 51.51 13.72L51.51 13.72Q50.72 13.72 50.01 13.43Q49.31 13.15 48.78 12.63Q48.24 12.11 47.94 11.39Q47.63 10.67 47.63 9.81L47.63 9.81Q47.63 8.99 47.94 8.29Q48.24 7.59 48.78 7.08Q49.31 6.58 50.01 6.30Q50.72 6.02 51.51 6.02ZM51.51 6.69L51.51 6.69Q50.99 6.69 50.56 6.92Q50.13 7.14 49.83 7.55Q49.53 7.97 49.37 8.55Q49.21 9.13 49.21 9.83L49.21 9.83Q49.21 10.56 49.37 11.14Q49.53 11.73 49.83 12.14Q50.13 12.56 50.55 12.78Q50.97 13.01 51.51 13.01L51.51 13.01Q52.04 13.01 52.47 12.78Q52.91 12.56 53.21 12.14Q53.52 11.72 53.69 11.13Q53.86 10.54 53.86 9.83L53.86 9.83Q53.86 9.13 53.69 8.55Q53.52 7.98 53.21 7.57Q52.91 7.15 52.47 6.92Q52.04 6.69 51.51 6.69ZM62.59 9.77L62.59 8.40Q62.59 7.83 62.57 7.50Q62.54 7.17 62.42 6.99Q62.30 6.82 62.07 6.75Q61.84 6.69 61.43 6.65L61.43 6.65L61.43 6.16L63.97 6.16L63.97 10.46Q63.97 11.26 63.99 11.76Q64.01 12.26 64.05 12.52L64.05 12.52Q64.08 12.70 64.14 12.80Q64.20 12.91 64.33 12.97Q64.46 13.03 64.66 13.05Q64.86 13.08 65.18 13.08L65.18 13.08L65.18 13.57L62.87 13.73L62.72 12.05L62.66 12.05Q62.13 12.92 61.44 13.32Q60.75 13.72 59.99 13.72L59.99 13.72Q59.40 13.72 58.85 13.50Q58.30 13.27 58.02 12.89L58.02 12.89Q57.78 12.59 57.67 12.04Q57.57 11.49 57.57 10.63L57.57 10.63L57.57 8.40Q57.57 7.83 57.54 7.50Q57.51 7.17 57.39 6.99Q57.27 6.82 57.04 6.75Q56.81 6.69 56.41 6.65L56.41 6.65L56.41 6.16L58.94 6.16L58.94 9.98Q58.94 11.51 59.30 12.19Q59.65 12.88 60.44 12.88L60.44 12.88Q61.67 12.88 62.36 11.27L62.36 11.27Q62.43 11.10 62.47 10.96Q62.51 10.82 62.54 10.65Q62.57 10.49 62.58 10.28Q62.59 10.07 62.59 9.77L62.59 9.77ZM68.60 10.88L68.60 11.35Q68.60 11.93 68.63 12.26Q68.66 12.60 68.77 12.78Q68.89 12.95 69.12 13.01Q69.34 13.06 69.75 13.09L69.75 13.09L69.75 13.58L66.02 13.58L66.02 13.09Q66.43 13.08 66.67 13.01Q66.91 12.95 67.03 12.78Q67.16 12.61 67.19 12.30Q67.23 11.98 67.23 11.45L67.23 11.45L67.23 9.81Q67.23 8.86 67.21 8.33Q67.19 7.80 67.07 7.55Q66.95 7.29 66.70 7.25Q66.44 7.20 66.00 7.20L66.00 7.20L66.00 6.71L68.45 6.17L68.64 7.91L68.70 7.91Q68.88 7.49 69.15 7.14Q69.43 6.79 69.75 6.54Q70.07 6.30 70.42 6.16Q70.77 6.02 71.13 6.02L71.13 6.02Q71.58 6.02 71.84 6.24Q72.10 6.45 72.10 6.82L72.10 6.82Q72.10 7.15 71.89 7.34Q71.68 7.53 71.29 7.53L71.29 7.53Q71.06 7.53 70.91 7.48Q70.76 7.42 70.64 7.36Q70.52 7.29 70.41 7.24Q70.31 7.18 70.18 7.18L70.18 7.18Q69.80 7.18 69.43 7.67Q69.05 8.15 68.84 8.89L68.84 8.89Q68.73 9.30 68.66 9.81Q68.60 10.32 68.60 10.88L68.60 10.88ZM75.19 9.51L75.19 11.38Q75.19 11.96 75.22 12.29Q75.25 12.61 75.37 12.79Q75.49 12.96 75.72 13.02Q75.95 13.08 76.36 13.10L76.36 13.10L76.36 13.58L72.69 13.58L72.69 13.10Q73.08 13.08 73.31 13.02Q73.54 12.96 73.67 12.80Q73.79 12.63 73.83 12.32Q73.86 12.01 73.86 11.48L73.86 11.48L73.86 9.62Q73.86 7.95 73.78 7.59L73.78 7.59Q73.74 7.41 73.67 7.29Q73.61 7.17 73.49 7.10Q73.36 7.04 73.16 7.02Q72.97 7 72.66 7L72.66 7L72.66 6.55L74.90 6.02L75.07 7.41L75.12 7.41Q75.66 6.75 76.37 6.38Q77.08 6.02 77.92 6.02L77.92 6.02Q78.57 6.02 79.10 6.23Q79.63 6.44 79.91 6.80L79.91 6.80Q80.15 7.13 80.25 7.64Q80.35 8.15 80.35 9.04L80.35 9.04L80.35 11.38Q80.35 11.96 80.38 12.29Q80.42 12.61 80.53 12.79Q80.64 12.96 80.87 13.02Q81.10 13.08 81.48 13.10L81.48 13.10L81.48 13.58L77.85 13.58L77.85 13.10Q78.25 13.09 78.48 13.03Q78.71 12.96 78.83 12.80Q78.95 12.63 78.98 12.31Q79.02 12.00 79.02 11.48L79.02 11.48L79.02 9.63Q79.02 8.83 78.93 8.29Q78.85 7.74 78.66 7.41Q78.47 7.07 78.16 6.92Q77.85 6.78 77.42 6.78L77.42 6.78Q76.79 6.78 76.26 7.10Q75.74 7.43 75.45 8.01L75.45 8.01Q75.38 8.15 75.33 8.27Q75.28 8.40 75.25 8.57Q75.22 8.74 75.21 8.95Q75.19 9.17 75.19 9.51L75.19 9.51ZM86.70 10.54L86.70 9.44Q85.90 9.74 85.35 10.04Q84.80 10.33 84.46 10.63Q84.13 10.92 83.98 11.21Q83.83 11.51 83.83 11.82L83.83 11.82Q83.83 12.28 84.14 12.57Q84.45 12.87 84.95 12.87L84.95 12.87Q85.32 12.87 85.63 12.68Q85.95 12.50 86.18 12.19Q86.42 11.87 86.56 11.45Q86.70 11.02 86.70 10.54L86.70 10.54ZM84.69 9.72L86.70 8.83L86.70 8.26Q86.70 6.55 85.25 6.55L85.25 6.55Q85.01 6.55 84.84 6.59Q84.67 6.64 84.56 6.73Q84.45 6.83 84.36 7.01Q84.27 7.20 84.18 7.46L84.18 7.46Q84.03 7.87 83.88 8.00Q83.73 8.13 83.45 8.13L83.45 8.13Q82.75 8.13 82.75 7.43L82.75 7.43Q82.75 6.76 83.47 6.39Q84.18 6.02 85.50 6.02L85.50 6.02Q86.90 6.02 87.49 6.52Q88.07 7.01 88.07 8.20L88.07 8.20L88.07 11.34Q88.07 12.94 88.70 12.94L88.70 12.94Q88.90 12.94 89.08 12.89Q89.26 12.84 89.39 12.63L89.39 12.63L89.59 12.96Q89.42 13.29 88.97 13.50Q88.52 13.72 88.03 13.72L88.03 13.72Q87.42 13.72 87.11 13.33Q86.81 12.94 86.81 12.22L86.81 12.22L86.74 12.22Q86.38 12.91 85.74 13.31Q85.09 13.71 84.31 13.71L84.31 13.71Q83.43 13.71 82.92 13.26Q82.42 12.81 82.42 12.05L82.42 12.05Q82.42 11.72 82.54 11.41Q82.66 11.10 82.92 10.82Q83.19 10.54 83.62 10.27Q84.06 10.00 84.69 9.72L84.69 9.72ZM92.50 1.96L92.50 11.40Q92.50 11.93 92.54 12.25Q92.58 12.57 92.71 12.75Q92.85 12.94 93.09 13.01Q93.34 13.08 93.74 13.09L93.74 13.09L93.74 13.58L89.88 13.58L89.88 13.09Q90.30 13.08 90.55 13.00Q90.80 12.92 90.95 12.75Q91.10 12.59 91.15 12.29Q91.20 11.98 91.20 11.49L91.20 11.49L91.20 5.46Q91.20 4.70 91.17 4.19Q91.15 3.68 91.11 3.50L91.11 3.50Q91.04 3.18 90.78 3.07Q90.52 2.95 89.85 2.95L89.85 2.95L89.85 2.48L92.50 1.96ZM97.31 6.02L97.31 11.35Q97.31 11.90 97.36 12.23Q97.41 12.56 97.55 12.75Q97.69 12.94 97.94 13.01Q98.20 13.08 98.62 13.09L98.62 13.09L98.62 13.58L94.60 13.58L94.60 13.09Q95.02 13.08 95.28 13.00Q95.55 12.92 95.70 12.75Q95.84 12.57 95.89 12.26Q95.94 11.94 95.94 11.45L95.94 11.45L95.94 9.66Q95.94 8.85 95.92 8.32Q95.90 7.80 95.84 7.60L95.84 7.60Q95.77 7.28 95.52 7.16Q95.27 7.04 94.57 7.04L94.57 7.04L94.57 6.55L97.31 6.02ZM95.70 3.18L95.70 3.18Q95.70 2.81 95.96 2.56Q96.21 2.31 96.57 2.31L96.57 2.31Q96.94 2.31 97.19 2.56Q97.44 2.81 97.44 3.18L97.44 3.18Q97.44 3.54 97.19 3.79Q96.94 4.05 96.57 4.05L96.57 4.05Q96.21 4.05 95.96 3.79Q95.70 3.54 95.70 3.18ZM101.92 9.51L101.92 11.38Q101.92 11.96 101.95 12.29Q101.98 12.61 102.09 12.79Q102.21 12.96 102.44 13.02Q102.68 13.08 103.08 13.10L103.08 13.10L103.08 13.58L99.41 13.58L99.41 13.10Q99.81 13.08 100.04 13.02Q100.27 12.96 100.39 12.80Q100.52 12.63 100.55 12.32Q100.59 12.01 100.59 11.48L100.59 11.48L100.59 9.62Q100.59 7.95 100.51 7.59L100.51 7.59Q100.46 7.41 100.40 7.29Q100.34 7.17 100.21 7.10Q100.09 7.04 99.89 7.02Q99.69 7 99.39 7L99.39 7L99.39 6.55L101.63 6.02L101.79 7.41L101.85 7.41Q102.38 6.75 103.10 6.38Q103.81 6.02 104.65 6.02L104.65 6.02Q105.29 6.02 105.83 6.23Q106.36 6.44 106.64 6.80L106.64 6.80Q106.88 7.13 106.97 7.64Q107.07 8.15 107.07 9.04L107.07 9.04L107.07 11.38Q107.07 11.96 107.11 12.29Q107.14 12.61 107.25 12.79Q107.37 12.96 107.60 13.02Q107.83 13.08 108.21 13.10L108.21 13.10L108.21 13.58L104.58 13.58L104.58 13.10Q104.97 13.09 105.20 13.03Q105.43 12.96 105.55 12.80Q105.67 12.63 105.71 12.31Q105.74 12.00 105.74 11.48L105.74 11.48L105.74 9.63Q105.74 8.83 105.66 8.29Q105.57 7.74 105.38 7.41Q105.20 7.07 104.89 6.92Q104.58 6.78 104.15 6.78L104.15 6.78Q103.52 6.78 102.99 7.10Q102.47 7.43 102.17 8.01L102.17 8.01Q102.10 8.15 102.05 8.27Q102.00 8.40 101.98 8.57Q101.95 8.74 101.93 8.95Q101.92 9.17 101.92 9.51L101.92 9.51ZM112.38 10.57L112.38 10.57Q112.97 10.57 113.29 10.04Q113.62 9.51 113.62 8.54L113.62 8.54Q113.62 7.59 113.29 7.06Q112.97 6.54 112.36 6.54L112.36 6.54Q111.76 6.54 111.40 7.07Q111.05 7.60 111.05 8.53L111.05 8.53Q111.05 9.45 111.41 10.01Q111.78 10.57 112.38 10.57ZM111.61 12.21L111.61 12.21Q111.94 12.24 112.22 12.26Q112.50 12.29 112.78 12.32Q113.05 12.35 113.32 12.39Q113.60 12.43 113.92 12.47L113.92 12.47Q114.93 12.63 115.53 13.25Q116.14 13.87 116.14 14.81L116.14 14.81Q116.14 15.99 115.21 16.60Q114.28 17.22 112.52 17.22L112.52 17.22Q111.73 17.22 111.08 17.08Q110.43 16.94 109.97 16.68Q109.51 16.42 109.25 16.06Q108.99 15.69 108.99 15.26L108.99 15.26Q108.99 14.97 109.09 14.71Q109.19 14.46 109.35 14.27Q109.52 14.08 109.75 13.97Q109.98 13.86 110.24 13.86L110.24 13.86Q110.71 13.86 111.09 14.15L111.09 14.15Q110.71 14.24 110.47 14.57Q110.24 14.90 110.24 15.32L110.24 15.32Q110.24 15.93 110.84 16.27Q111.45 16.60 112.57 16.60L112.57 16.60Q114.97 16.60 114.97 15.13L114.97 15.13Q114.97 14.57 114.59 14.20Q114.21 13.83 113.69 13.76L113.69 13.76Q113.36 13.72 113.00 13.67Q112.64 13.62 112.30 13.58Q111.96 13.54 111.66 13.51Q111.37 13.48 111.19 13.45L111.19 13.45Q110.40 13.37 110.00 13.03Q109.59 12.70 109.59 12.11L109.59 12.11Q109.59 11.62 110.00 11.24Q110.40 10.86 111.02 10.77L111.02 10.77L111.02 10.71Q110.71 10.58 110.45 10.35Q110.18 10.12 109.99 9.83Q109.80 9.53 109.69 9.19Q109.58 8.85 109.58 8.48L109.58 8.48Q109.58 7.95 109.78 7.50Q109.98 7.06 110.35 6.73Q110.73 6.40 111.23 6.21Q111.73 6.02 112.34 6.02L112.34 6.02Q112.95 6.02 113.50 6.21Q114.04 6.40 114.44 6.76L114.44 6.76Q114.91 6.37 115.28 6.20Q115.64 6.02 115.96 6.02L115.96 6.02Q116.47 6.02 116.77 6.25Q117.07 6.48 117.07 6.87L117.07 6.87Q117.07 7.11 116.91 7.25Q116.75 7.39 116.51 7.39L116.51 7.39Q116.31 7.39 116.19 7.32Q116.06 7.25 115.95 7.17Q115.85 7.10 115.74 7.03Q115.63 6.96 115.46 6.96L115.46 6.96Q115.12 6.96 114.77 7.20L114.77 7.20Q115.11 7.71 115.11 8.50L115.11 8.50Q115.11 9.69 114.37 10.37Q113.62 11.05 112.14 11.16L112.14 11.16Q111.29 11.23 110.95 11.34Q110.61 11.45 110.61 11.75L110.61 11.75Q110.61 11.97 110.87 12.07Q111.12 12.18 111.61 12.21Z"></path></g><!----><!----></svg>