<svg data-v-423bf9ae="" xmlns="http://www.w3.org/2000/svg" viewBox="0 0 2755.2000000000003 2763" class="iconAbove"><!----><!----><!----><g data-v-423bf9ae="" id="09809088-4abd-44a3-9494-4124b57576bf" fill="white" transform="matrix(4.926108250958215,0,0,4.926108250958215,1146.0236235326092,2680.8759610211887)"><path d="M0.71 14.01Q0.62 14.01 0.56 13.96Q0.50 13.90 0.50 13.82L0.50 13.82Q0.50 13.73 0.56 13.68Q0.62 13.62 0.71 13.62L0.71 13.62L1.26 13.62Q1.40 13.62 1.51 13.51Q1.62 13.40 1.62 13.24L1.62 13.24L1.62 5.19Q1.62 5.04 1.52 4.93Q1.41 4.82 1.26 4.82L1.26 4.82L0.71 4.82Q0.63 4.82 0.57 4.75Q0.50 4.69 0.50 4.61L0.50 4.61Q0.50 4.52 0.56 4.47Q0.62 4.41 0.71 4.41L0.71 4.41L4.21 4.41Q6.41 4.41 7.81 5.57Q9.21 6.72 9.21 9.21L9.21 9.21Q9.21 10.88 8.54 11.96Q7.87 13.03 6.74 13.52Q5.61 14.01 4.21 14.01L4.21 14.01L0.71 14.01ZM3.02 13.62L3.88 13.62Q5.26 13.62 6.06 13.29Q6.86 12.95 7.25 12.08Q7.63 11.20 7.63 9.55L7.63 9.55L7.63 8.83Q7.63 7.22 7.20 6.34Q6.76 5.46 5.99 5.14Q5.21 4.82 4.02 4.82L4.02 4.82L3.02 4.82L3.02 13.62ZM12.05 14.20Q11.26 14.20 10.84 13.75Q10.43 13.30 10.43 12.67L10.43 12.67Q10.43 12.00 10.91 11.56Q11.40 11.13 12.14 10.93L12.14 10.93Q12.85 10.71 13.66 10.71L13.66 10.71L13.86 10.72L13.86 10.46Q13.86 9.88 13.79 9.49Q13.72 9.10 13.44 8.83Q13.16 8.55 12.59 8.55L12.59 8.55Q12.17 8.55 12.04 8.67Q11.91 8.78 11.91 8.90L11.91 8.90Q11.91 8.97 11.98 9.13Q12.05 9.28 12.05 9.35L12.05 9.35Q12.05 9.66 11.89 9.81L11.89 9.81Q11.73 10.00 11.45 10.00L11.45 10.00Q11.20 10.00 11.00 9.80L11.00 9.80Q10.91 9.69 10.86 9.59Q10.82 9.49 10.82 9.37L10.82 9.37Q10.82 9.10 11.00 8.88L11.00 8.88Q11.30 8.54 11.78 8.43Q12.26 8.32 12.70 8.32L12.70 8.32Q13.37 8.32 13.82 8.47Q14.27 8.62 14.53 8.96L14.53 8.96Q14.76 9.25 14.80 9.59Q14.85 9.93 14.85 10.72L14.85 10.72L14.85 12.89Q14.85 13.66 15.26 13.66L15.26 13.66Q15.48 13.66 15.71 13.44L15.71 13.44Q15.74 13.43 15.75 13.41Q15.76 13.38 15.79 13.38L15.79 13.38Q15.88 13.38 15.88 13.48L15.88 13.48Q15.88 13.68 15.56 13.91Q15.25 14.14 14.95 14.14L14.95 14.14Q14.59 14.14 14.32 13.87Q14.04 13.59 13.90 13.19L13.90 13.19Q13.86 13.19 13.84 13.17Q13.82 13.16 13.80 13.19L13.80 13.19Q13.20 14.20 12.05 14.20L12.05 14.20ZM12.46 13.71Q12.84 13.71 13.16 13.51Q13.48 13.31 13.67 13.03Q13.86 12.75 13.86 12.52L13.86 12.52L13.86 10.99Q13.45 10.99 12.99 11.05Q12.53 11.12 12.22 11.27L12.22 11.27Q11.75 11.51 11.60 11.91Q11.45 12.31 11.45 12.63L11.45 12.63Q11.45 12.99 11.68 13.35Q11.90 13.71 12.46 13.71L12.46 13.71ZM18.00 6.41Q17.74 6.41 17.55 6.22Q17.36 6.02 17.36 5.75L17.36 5.75Q17.36 5.49 17.55 5.29Q17.74 5.08 18.00 5.08L18.00 5.08Q18.27 5.08 18.48 5.29Q18.69 5.50 18.69 5.75L18.69 5.75Q18.69 6.02 18.49 6.22Q18.28 6.41 18.00 6.41L18.00 6.41ZM16.83 14.01Q16.77 14.01 16.75 13.97Q16.73 13.93 16.73 13.85L16.73 13.85Q16.73 13.78 16.76 13.76Q16.79 13.73 16.87 13.73L16.87 13.73L17.26 13.73Q17.39 13.73 17.45 13.64Q17.51 13.54 17.51 13.41L17.51 13.41L17.51 9.00Q17.51 8.69 17.26 8.69L17.26 8.69L16.73 8.69Q16.56 8.69 16.56 8.54L16.56 8.54Q16.56 8.36 16.74 8.36L16.74 8.36L18.33 8.36Q18.54 8.36 18.54 8.58L18.54 8.58L18.54 13.51Q18.54 13.64 18.58 13.67Q18.62 13.71 18.72 13.71L18.72 13.71L19.18 13.71Q19.32 13.71 19.32 13.85L19.32 13.85Q19.32 14.01 19.18 14.01L19.18 14.01L16.83 14.01ZM20.57 14.01Q20.47 14.01 20.47 13.85L20.47 13.85Q20.47 13.78 20.50 13.76Q20.52 13.73 20.61 13.73L20.61 13.73L21.01 13.73Q21.14 13.73 21.20 13.64Q21.25 13.55 21.25 13.41L21.25 13.41L21.25 5.07Q21.25 4.90 21.18 4.81Q21.11 4.72 21.01 4.72L21.01 4.72L20.47 4.72Q20.30 4.72 20.30 4.56L20.30 4.56Q20.30 4.48 20.34 4.45Q20.38 4.41 20.48 4.41L20.48 4.41L22.06 4.41Q22.27 4.41 22.27 4.62L22.27 4.62L22.27 13.51Q22.27 13.64 22.32 13.67Q22.36 13.71 22.46 13.71L22.46 13.71L22.92 13.71Q23.06 13.71 23.06 13.85L23.06 13.85Q23.06 14.01 22.92 14.01L22.92 14.01L20.57 14.01ZM24.74 16.45Q24.16 16.45 23.97 16.23Q23.77 16.00 23.77 15.78L23.77 15.78Q23.77 15.57 23.92 15.35Q24.07 15.13 24.40 15.13L24.40 15.13Q24.70 15.13 24.79 15.28Q24.88 15.43 24.93 15.68L24.93 15.68Q24.99 15.96 25.20 15.96L25.20 15.96Q25.40 15.96 25.65 15.76Q25.91 15.55 26.19 14.91L26.19 14.91L26.56 14.03L24.39 8.96Q24.23 8.65 23.88 8.65L23.88 8.65Q23.73 8.65 23.73 8.51L23.73 8.51Q23.73 8.36 23.90 8.36L23.90 8.36L25.98 8.36Q26.14 8.36 26.14 8.51L26.14 8.51Q26.14 8.65 25.98 8.65L25.98 8.65L25.62 8.65Q25.54 8.65 25.49 8.71Q25.45 8.76 25.51 8.83L25.51 8.83L26.96 12.52Q27.01 12.59 27.08 12.59L27.08 12.59Q27.16 12.59 27.19 12.52L27.19 12.52L28.34 9.42Q28.38 9.32 28.38 9.17L28.38 9.17Q28.38 8.92 28.20 8.79Q28.03 8.65 27.78 8.65L27.78 8.65L27.64 8.65Q27.50 8.65 27.50 8.51L27.50 8.51Q27.50 8.36 27.64 8.36L27.64 8.36L29.41 8.36Q29.50 8.36 29.52 8.39Q29.54 8.43 29.54 8.51L29.54 8.51Q29.54 8.60 29.52 8.62Q29.50 8.65 29.41 8.65L29.41 8.65Q29.04 8.65 28.87 9.02L28.87 9.02L26.46 14.95Q26.14 15.71 25.74 16.08Q25.34 16.45 24.74 16.45L24.74 16.45ZM35.73 14.20Q35.01 14.20 34.53 13.96Q34.05 13.72 33.82 13.30L33.82 13.30Q33.57 12.89 33.57 12.47L33.57 12.47Q33.57 12.26 33.66 12.07L33.66 12.07Q33.77 11.83 34.00 11.63Q34.23 11.44 34.52 11.44L34.52 11.44Q34.85 11.44 35.06 11.66Q35.28 11.87 35.28 12.21L35.28 12.21Q35.28 12.52 35.09 12.72Q34.90 12.92 34.59 12.92L34.59 12.92Q34.58 12.92 34.55 12.93Q34.52 12.94 34.48 12.96L34.48 12.96Q34.41 13.02 34.41 13.19L34.41 13.19Q34.41 13.43 34.66 13.63Q34.90 13.83 35.42 13.83L35.42 13.83Q36.12 13.83 36.45 13.47Q36.78 13.10 36.86 12.54Q36.95 11.98 36.95 11.07L36.95 11.07L36.95 5.22Q36.95 5.08 36.82 4.98Q36.69 4.89 36.54 4.89L36.54 4.89L35.92 4.89Q35.84 4.89 35.78 4.82Q35.73 4.75 35.73 4.66L35.73 4.66Q35.73 4.59 35.78 4.54Q35.84 4.49 35.92 4.49L35.92 4.49L39.31 4.49Q39.40 4.49 39.46 4.54Q39.52 4.59 39.52 4.66L39.52 4.66Q39.52 4.75 39.46 4.82Q39.40 4.89 39.31 4.89L39.31 4.89L38.71 4.89Q38.54 4.89 38.43 4.98Q38.32 5.08 38.32 5.22L38.32 5.22L38.32 11.27Q38.32 12.31 37.81 13.25Q37.30 14.20 35.73 14.20L35.73 14.20ZM43.23 14.14Q42.49 14.14 41.85 13.74Q41.22 13.34 40.84 12.67Q40.47 12.00 40.47 11.21L40.47 11.21Q40.47 10.42 40.84 9.72Q41.22 9.03 41.85 8.62Q42.49 8.22 43.23 8.22L43.23 8.22Q43.97 8.22 44.61 8.62Q45.25 9.03 45.62 9.72Q45.99 10.42 45.99 11.21L45.99 11.21Q45.99 12.00 45.62 12.67Q45.25 13.34 44.61 13.74Q43.97 14.14 43.23 14.14L43.23 14.14ZM43.23 13.89Q43.93 13.89 44.34 13.15Q44.74 12.42 44.74 11.21L44.74 11.21Q44.74 10.00 44.34 9.24Q43.93 8.48 43.23 8.48L43.23 8.48Q42.55 8.48 42.14 9.24Q41.73 10.00 41.73 11.21L41.73 11.21Q41.73 12.42 42.14 13.15Q42.55 13.89 43.23 13.89L43.23 13.89ZM49.28 14.14Q48.50 14.14 48.14 13.62Q47.78 13.10 47.78 12.52L47.78 12.52L47.78 8.88Q47.78 8.65 47.59 8.65L47.59 8.65L47.11 8.65Q46.97 8.65 46.97 8.51L46.97 8.51Q46.97 8.37 47.14 8.37L47.14 8.37L48.64 8.37Q48.73 8.37 48.77 8.41Q48.80 8.44 48.80 8.54L48.80 8.54L48.80 12.49Q48.80 12.95 49.07 13.24Q49.34 13.52 49.73 13.52L49.73 13.52Q50.29 13.52 50.71 13.08Q51.13 12.64 51.13 11.52L51.13 11.52L51.13 8.86Q51.13 8.74 51.09 8.69Q51.04 8.65 50.95 8.65L50.95 8.65L50.48 8.65Q50.34 8.65 50.34 8.51L50.34 8.51Q50.34 8.36 50.48 8.36L50.48 8.36L51.94 8.36Q52.07 8.36 52.12 8.40Q52.16 8.44 52.16 8.54L52.16 8.54L52.16 13.37Q52.16 13.54 52.23 13.62Q52.29 13.71 52.39 13.71L52.39 13.71L52.92 13.71Q53.10 13.71 53.10 13.83L53.10 13.83Q53.10 13.90 53.04 13.96Q52.98 14.01 52.89 14.01L52.89 14.01L51.34 14.01Q51.23 14.01 51.18 13.97Q51.13 13.92 51.13 13.79L51.13 13.79L51.13 13.01Q51.13 12.95 51.09 12.95Q51.06 12.95 51.03 13.01L51.03 13.01Q50.79 13.41 50.40 13.78Q50.01 14.14 49.28 14.14L49.28 14.14ZM54.33 14.01Q54.28 14.01 54.26 13.97Q54.24 13.93 54.24 13.85L54.24 13.85Q54.24 13.78 54.26 13.76Q54.29 13.73 54.38 13.73L54.38 13.73L54.87 13.73Q54.99 13.73 55.06 13.64Q55.13 13.54 55.13 13.41L55.13 13.41L55.13 9.00Q55.13 8.85 55.05 8.77Q54.98 8.69 54.87 8.69L54.87 8.69L54.24 8.69Q54.07 8.69 54.07 8.54L54.07 8.54Q54.07 8.36 54.25 8.36L54.25 8.36L55.94 8.36Q56.17 8.36 56.17 8.58L56.17 8.58L56.17 9.72Q56.17 9.63 56.34 9.26Q56.50 8.89 56.87 8.56Q57.23 8.23 57.82 8.23L57.82 8.23Q58.34 8.23 58.58 8.48Q58.81 8.74 58.81 9.09L58.81 9.09Q58.81 9.38 58.65 9.60Q58.48 9.81 58.21 9.81L58.21 9.81Q57.96 9.81 57.80 9.65Q57.64 9.49 57.64 9.24L57.64 9.24Q57.64 8.99 57.78 8.83L57.78 8.83Q57.85 8.76 57.85 8.71L57.85 8.71Q57.85 8.64 57.76 8.59Q57.68 8.54 57.54 8.54L57.54 8.54Q57.23 8.54 56.92 8.81Q56.60 9.09 56.38 9.63Q56.17 10.16 56.17 10.91L56.17 10.91L56.17 13.51Q56.17 13.64 56.20 13.67Q56.22 13.71 56.32 13.71L56.32 13.71L57.04 13.71Q57.11 13.71 57.16 13.74Q57.22 13.78 57.22 13.85L57.22 13.85Q57.22 14.01 57.04 14.01L57.04 14.01L54.33 14.01ZM59.77 14.01Q59.71 14.01 59.69 13.97Q59.67 13.93 59.67 13.85L59.67 13.85Q59.67 13.78 59.70 13.76Q59.72 13.73 59.81 13.73L59.81 13.73L60.20 13.73Q60.33 13.73 60.39 13.64Q60.45 13.54 60.45 13.41L60.45 13.41L60.45 9.00Q60.45 8.69 60.20 8.69L60.20 8.69L59.67 8.69Q59.50 8.69 59.50 8.54L59.50 8.54Q59.50 8.36 59.68 8.36L59.68 8.36L61.26 8.36Q61.47 8.36 61.47 8.58L61.47 8.58L61.47 9.42Q61.50 9.49 61.57 9.39L61.57 9.39Q61.59 9.37 61.76 9.07Q61.94 8.78 62.36 8.51Q62.79 8.23 63.32 8.23L63.32 8.23Q64.09 8.23 64.46 8.75Q64.82 9.27 64.82 9.86L64.82 9.86L64.82 13.48Q64.82 13.71 65.00 13.71L65.00 13.71L65.46 13.71Q65.55 13.71 65.59 13.73Q65.63 13.76 65.63 13.85L65.63 13.85Q65.63 13.93 65.59 13.97Q65.55 14.00 65.46 14.00L65.46 14.00L63.28 14.00Q63.18 14.00 63.18 13.85L63.18 13.85Q63.18 13.78 63.21 13.74Q63.24 13.71 63.32 13.71L63.32 13.71L63.56 13.71Q63.70 13.71 63.75 13.66Q63.80 13.62 63.80 13.48L63.80 13.48L63.80 9.90Q63.80 9.44 63.53 9.14Q63.27 8.83 62.87 8.83L62.87 8.83Q62.43 8.83 62.01 9.18Q61.60 9.52 61.47 10.35L61.47 10.35L61.47 13.51Q61.47 13.64 61.52 13.67Q61.56 13.71 61.66 13.71L61.66 13.71L61.96 13.71Q62.03 13.71 62.05 13.73Q62.08 13.76 62.08 13.85L62.08 13.85Q62.08 13.94 62.05 13.98Q62.03 14.01 61.96 14.01L61.96 14.01L59.77 14.01ZM68.26 14.20Q67.47 14.20 67.05 13.75Q66.64 13.30 66.64 12.67L66.64 12.67Q66.64 12.00 67.12 11.56Q67.61 11.13 68.35 10.93L68.35 10.93Q69.06 10.71 69.87 10.71L69.87 10.71L70.07 10.72L70.07 10.46Q70.07 9.88 70.00 9.49Q69.93 9.10 69.65 8.83Q69.37 8.55 68.80 8.55L68.80 8.55Q68.38 8.55 68.25 8.67Q68.12 8.78 68.12 8.90L68.12 8.90Q68.12 8.97 68.19 9.13Q68.26 9.28 68.26 9.35L68.26 9.35Q68.26 9.66 68.10 9.81L68.10 9.81Q67.94 10.00 67.66 10.00L67.66 10.00Q67.41 10.00 67.21 9.80L67.21 9.80Q67.12 9.69 67.07 9.59Q67.03 9.49 67.03 9.37L67.03 9.37Q67.03 9.10 67.21 8.88L67.21 8.88Q67.51 8.54 67.99 8.43Q68.47 8.32 68.91 8.32L68.91 8.32Q69.58 8.32 70.03 8.47Q70.48 8.62 70.74 8.96L70.74 8.96Q70.97 9.25 71.02 9.59Q71.06 9.93 71.06 10.72L71.06 10.72L71.06 12.89Q71.06 13.66 71.47 13.66L71.47 13.66Q71.69 13.66 71.92 13.44L71.92 13.44Q71.95 13.43 71.96 13.41Q71.97 13.38 72.00 13.38L72.00 13.38Q72.09 13.38 72.09 13.48L72.09 13.48Q72.09 13.68 71.77 13.91Q71.46 14.14 71.16 14.14L71.16 14.14Q70.80 14.14 70.53 13.87Q70.25 13.59 70.11 13.19L70.11 13.19Q70.07 13.19 70.05 13.17Q70.03 13.16 70.01 13.19L70.01 13.19Q69.41 14.20 68.26 14.20L68.26 14.20ZM68.67 13.71Q69.05 13.71 69.37 13.51Q69.69 13.31 69.88 13.03Q70.07 12.75 70.07 12.52L70.07 12.52L70.07 10.99Q69.66 10.99 69.20 11.05Q68.74 11.12 68.43 11.27L68.43 11.27Q67.96 11.51 67.81 11.91Q67.66 12.31 67.66 12.63L67.66 12.63Q67.66 12.99 67.89 13.35Q68.11 13.71 68.67 13.71L68.67 13.71ZM73.04 14.01Q72.94 14.01 72.94 13.85L72.94 13.85Q72.94 13.78 72.97 13.76Q73.00 13.73 73.08 13.73L73.08 13.73L73.49 13.73Q73.61 13.73 73.67 13.64Q73.72 13.55 73.72 13.41L73.72 13.41L73.72 5.07Q73.72 4.90 73.65 4.81Q73.58 4.72 73.49 4.72L73.49 4.72L72.94 4.72Q72.77 4.72 72.77 4.56L72.77 4.56Q72.77 4.48 72.81 4.45Q72.86 4.41 72.95 4.41L72.95 4.41L74.54 4.41Q74.75 4.41 74.75 4.62L74.75 4.62L74.75 13.51Q74.75 13.64 74.79 13.67Q74.83 13.71 74.93 13.71L74.93 13.71L75.39 13.71Q75.53 13.71 75.53 13.85L75.53 13.85Q75.53 14.01 75.39 14.01L75.39 14.01L73.04 14.01ZM77.95 6.41Q77.69 6.41 77.50 6.22Q77.31 6.02 77.31 5.75L77.31 5.75Q77.31 5.49 77.50 5.29Q77.69 5.08 77.95 5.08L77.95 5.08Q78.22 5.08 78.43 5.29Q78.64 5.50 78.64 5.75L78.64 5.75Q78.64 6.02 78.44 6.22Q78.23 6.41 77.95 6.41L77.95 6.41ZM76.78 14.01Q76.72 14.01 76.70 13.97Q76.68 13.93 76.68 13.85L76.68 13.85Q76.68 13.78 76.71 13.76Q76.73 13.73 76.82 13.73L76.82 13.73L77.21 13.73Q77.34 13.73 77.40 13.64Q77.46 13.54 77.46 13.41L77.46 13.41L77.46 9.00Q77.46 8.69 77.21 8.69L77.21 8.69L76.68 8.69Q76.51 8.69 76.51 8.54L76.51 8.54Q76.51 8.36 76.69 8.36L76.69 8.36L78.27 8.36Q78.48 8.36 78.48 8.58L78.48 8.58L78.48 13.51Q78.48 13.64 78.53 13.67Q78.57 13.71 78.67 13.71L78.67 13.71L79.13 13.71Q79.27 13.71 79.27 13.85L79.27 13.85Q79.27 14.01 79.13 14.01L79.13 14.01L76.78 14.01ZM80.51 14.01Q80.46 14.01 80.44 13.97Q80.42 13.93 80.42 13.85L80.42 13.85Q80.42 13.78 80.44 13.76Q80.47 13.73 80.56 13.73L80.56 13.73L80.95 13.73Q81.07 13.73 81.14 13.64Q81.20 13.54 81.20 13.41L81.20 13.41L81.20 9.00Q81.20 8.69 80.95 8.69L80.95 8.69L80.42 8.69Q80.25 8.69 80.25 8.54L80.25 8.54Q80.25 8.36 80.43 8.36L80.43 8.36L82.01 8.36Q82.22 8.36 82.22 8.58L82.22 8.58L82.22 9.42Q82.25 9.49 82.32 9.39L82.32 9.39Q82.33 9.37 82.51 9.07Q82.68 8.78 83.11 8.51Q83.54 8.23 84.07 8.23L84.07 8.23Q84.84 8.23 85.20 8.75Q85.57 9.27 85.57 9.86L85.57 9.86L85.57 13.48Q85.57 13.71 85.75 13.71L85.75 13.71L86.21 13.71Q86.30 13.71 86.34 13.73Q86.38 13.76 86.38 13.85L86.38 13.85Q86.38 13.93 86.34 13.97Q86.30 14.00 86.21 14.00L86.21 14.00L84.03 14.00Q83.93 14.00 83.93 13.85L83.93 13.85Q83.93 13.78 83.96 13.74Q83.99 13.71 84.07 13.71L84.07 13.71L84.31 13.71Q84.45 13.71 84.50 13.66Q84.55 13.62 84.55 13.48L84.55 13.48L84.55 9.90Q84.55 9.44 84.28 9.14Q84.01 8.83 83.62 8.83L83.62 8.83Q83.17 8.83 82.76 9.18Q82.35 9.52 82.22 10.35L82.22 10.35L82.22 13.51Q82.22 13.64 82.26 13.67Q82.31 13.71 82.40 13.71L82.40 13.71L82.71 13.71Q82.78 13.71 82.80 13.73Q82.82 13.76 82.82 13.85L82.82 13.85Q82.82 13.94 82.80 13.98Q82.78 14.01 82.71 14.01L82.71 14.01L80.51 14.01ZM89.98 16.59Q88.51 16.59 87.93 16.23Q87.35 15.88 87.35 15.34L87.35 15.34Q87.35 14.52 88.77 14.03L88.77 14.03Q88.17 13.94 87.87 13.73Q87.57 13.51 87.57 13.12L87.57 13.12Q87.57 12.68 87.94 12.42Q88.31 12.15 89.05 12.03L89.05 12.03Q88.47 11.79 88.11 11.33Q87.75 10.86 87.75 10.28L87.75 10.28Q87.75 9.72 88.07 9.24Q88.38 8.76 88.92 8.49Q89.46 8.22 90.09 8.22L90.09 8.22Q90.57 8.22 91.01 8.38Q91.45 8.54 91.80 8.81L91.80 8.81Q91.97 8.46 92.27 8.27Q92.57 8.09 92.90 8.09L92.90 8.09Q93.23 8.09 93.37 8.27Q93.52 8.46 93.52 8.67L93.52 8.67Q93.52 8.88 93.38 9.02Q93.24 9.17 93.06 9.17L93.06 9.17Q92.90 9.17 92.82 9.11Q92.74 9.04 92.62 8.92L92.62 8.92Q92.57 8.85 92.50 8.79Q92.43 8.72 92.33 8.72L92.33 8.72Q92.25 8.72 92.13 8.76L92.13 8.76Q92.02 8.81 91.95 8.96L91.95 8.96Q92.19 9.18 92.34 9.53Q92.48 9.87 92.48 10.25L92.48 10.25Q92.48 10.81 92.16 11.26Q91.84 11.70 91.28 11.96Q90.72 12.22 90.03 12.22L90.03 12.22Q89.63 12.22 89.33 12.12L89.33 12.12Q88.70 12.18 88.52 12.38Q88.34 12.59 88.34 12.75L88.34 12.75Q88.34 13.02 88.79 13.10L88.79 13.10Q89.17 13.17 90.92 13.30L90.92 13.30Q92.23 13.40 92.65 13.87Q93.07 14.35 93.07 14.87L93.07 14.87Q93.07 15.53 92.44 16.06Q91.81 16.59 89.98 16.59L89.98 16.59ZM90.10 11.98Q90.68 11.98 91.02 11.51Q91.36 11.03 91.36 10.25L91.36 10.25Q91.36 9.46 91.01 8.96Q90.66 8.46 90.10 8.46L90.10 8.46Q89.56 8.46 89.22 8.96Q88.87 9.46 88.87 10.25L88.87 10.25Q88.87 11.03 89.21 11.51Q89.54 11.98 90.10 11.98L90.10 11.98ZM90.26 16.31Q92.44 16.31 92.44 15.20L92.44 15.20Q92.44 14.81 92.15 14.61Q91.85 14.41 91.34 14.32Q90.83 14.24 89.77 14.14L89.77 14.14Q89.60 14.11 89.32 14.11L89.32 14.11Q88.82 14.31 88.56 14.55Q88.30 14.80 88.30 15.26L88.30 15.26Q88.30 15.75 88.72 16.03Q89.14 16.31 90.26 16.31L90.26 16.31Z"></path></g><!----><g data-v-423bf9ae="" id="0c1272e9-8e76-43b9-bb3b-fb66ca5bfc1a" transform="matrix(5.466666666666667,0,0,5.466666666666667,-21.466666666666697,-65.40000000000009)" stroke="none" fill="white"><path d="M319.112 130c.119 0 .239 0 .359-.016l52.55-4.666a4 4 0 00-.708-7.969l-52.549 4.667a4 4 0 00.348 7.984zM274 154.667a4.048 4.048 0 00.882-.1l26.667-6a4 4 0 00-1.756-7.8l-26.667 6a4 4 0 00.874 7.9zM294.48 157.758l-18.333 4a4 4 0 00.849 7.909 4.07 4.07 0 00.857-.092l18.333-4a4 4 0 00-1.706-7.817zM427.629 279.452a4 4 0 00-4.51-3.414l-45.79 6.333a4 4 0 00.543 7.963 4.145 4.145 0 00.553-.038l45.79-6.334a4 4 0 003.414-4.51zM417.288 295.694l-39.876 4.667a4 4 0 00.46 7.973 3.936 3.936 0 00.47-.028l39.876-4.667a4 4 0 10-.93-7.945zM344 284a12 12 0 1012 12 12.013 12.013 0 00-12-12zm0 16a4 4 0 114-4 4 4 0 01-4 4zM340 328a12 12 0 1012-12 12.013 12.013 0 00-12 12zm16 0a4 4 0 11-4-4 4 4 0 014 4zM372.071 328.754a3.993 3.993 0 004.683 3.174l33-6.333a4 4 0 10-1.508-7.857l-33 6.334a4 4 0 00-3.175 4.682z"></path><path d="M504 244h-20v-16h12a4 4 0 004-4v-16a4 4 0 00-4-4h-12v-92a4 4 0 00-4-4h-28V96a4 4 0 00-4.332-3.986L412 94.986V72a4 4 0 00-4-4h-16a4 4 0 00-4 4v24.986l-8 .667V80a4 4 0 00-4-4h-16a4 4 0 00-4 4v19.653l-99.917 8.326L64.5 84.031A4 4 0 0060 88v4.911l-11.693-.9A4 4 0 0044 96v12H32a4 4 0 00-4 4v36H16a4 4 0 00-4 4v16a4 4 0 004 4h12v192H8a4 4 0 00-4 4v16a4 4 0 004 4h20v92a4 4 0 004 4 3.8 3.8 0 00.426-.023l75.574-8.1V500a4 4 0 004 4 3.958 3.958 0 00.97-.12l16-4A4 4 0 00132 496v-22.7l124-13.281 223.574 23.954A3.8 3.8 0 00480 484a4 4 0 004-4V268h20a4 4 0 004-4v-16a4 4 0 00-4-4zm-28 0h-8v-16h8zm-24-16h8v223.681l-8-.615zm40-8h-40v-8h40zm-32-16h-8v-72h8zm16-88v88h-8v-76a4 4 0 00-4-4h-12v-8zm-80-40h8v19.653l-8 .666zm-32 8h8v14.319l-8 .667zm-104 31.681l184-15.334v359.122l-184-23zM52 459.512V172h8v276a4 4 0 004 4h.166l82.9-3.455zm200-343.981v320.632L68 443.83V172h12a4 4 0 004-4v-16a4 4 0 00-4-4H68V92.531zm-192-14.6V148h-8v-47.681zM36 116h8v32h-8zm-16 40h56v8H20zm16 16h8v192h-8zM12 372h32v8H12zm24 103.549V388h8v76a4 4 0 004 4 4.168 4.168 0 00.459-.026L108 461.1v6.732zm80 19.328v-34.7l8-.923v33.62zm360-19.329l-219.574-23.525a4.044 4.044 0 00-.852 0L132 465.259v-6.925l123.981-14.305 191.519 23.94a3.944 3.944 0 00.5.031 4 4 0 004-4v-4.911l11.693.9c.1.008.205.012.307.012a4 4 0 004-4V268h8zM500 260h-32v-8h32zM102.851 47.832l40 12A4.024 4.024 0 00144 60h252a16 16 0 000-32h-24V16a4 4 0 00-4-4h-80a4 4 0 000 8h76v8H144a4.024 4.024 0 00-1.149.168l-40 12a4 4 0 000 7.664zM204 52V36h152v16zm200-8a8.009 8.009 0 01-8 8h-32V36h32a8.009 8.009 0 018 8zm-208-8v16h-32V36zm-51.413 0H156v16h-11.413l-26.667-8z"></path><path d="M421.624 192.457L409.541 146a4 4 0 00-4.878-2.864l-55.489 14.433-2.109-8.106a4 4 0 00-4.877-2.864l-15.488 4.03a4 4 0 00-2.864 4.878l2.11 8.11-52.9 13.762a4 4 0 00-2.864 4.878l26.18 100.65a4 4 0 004.878 2.864l131.619-34.24a4 4 0 002.865-4.878zm-33.34 36.754l21.116-21.525-8 27.231-19.431 5.054zm-47.954-73.86l4.028 15.484-7.743 2.014-4.028-15.484zm-12.369 16.008l1.919 7.375a4 4 0 004.878 2.865l15.485-4.029a4 4 0 002.864-4.878l-1.919-7.378 51.618-13.426 10.506 40.391-29.247 29.808-61.817-23.675a4 4 0 00-4.286.934L290.24 227.6l-11.312-43.487zm12.139 57.777a4 4 0 00-2.653-1.946l-14.106-2.99 1.1-16.376 29.26 11.206-1.42 21.074-17.944 9.791 6.055-17.479a4 4 0 00-.292-3.28zm-37 47.885l-10.507-40.392 23.51-23.962-.973 14.452a4 4 0 003.16 4.182l13.067 2.774-7.959 22.973a4 4 0 005.695 4.821l28.955-15.8a4 4 0 002.075-3.242l1.4-20.808 17.723 6.787-9.066 15.441a4 4 0 004.456 5.9l30.97-8.057a4 4 0 002.831-2.743l9.082-30.9 9.455 36.348z"></path><path d="M377.88 199.172a16.006 16.006 0 0015.482-20.029 16 16 0 10-15.482 20.029zm-2.017-23.744a8 8 0 11-5.728 9.757 7.987 7.987 0 015.728-9.757zM126.221 221.653a4 4 0 00-5.464 4.619l2.209 9.1a24.5 24.5 0 0019.022 18.2l2.933.576a4.005 4.005 0 00.535.053 33.042 33.042 0 005.461 6.731 24.844 24.844 0 015.969 8.749 24.377 24.377 0 00-10.576-5.49l-9.11-2.141a4 4 0 00-4.579 5.5l3.754 8.575a24.508 24.508 0 0020.125 14.523l-1.481 5.608a19.852 19.852 0 006.088 20.108 24.386 24.386 0 00-10.119 7.613l-5.749 7.388a4 4 0 003.086 6.456l9.361.167h.431a24.507 24.507 0 0021.033-12.02 12.034 12.034 0 012.325 7.138l-.16 11.706a20.138 20.138 0 008.035 16.337l17.889 13.38a4 4 0 104.791-6.406l-17.886-13.378a12.106 12.106 0 01-4.829-9.823l.036-2.632 1.612-.516a24.5 24.5 0 0016.8-20.272l1.146-9.291a4 4 0 00-5.96-3.96l-8.121 4.658a24.381 24.381 0 00-8.877 8.812 19.974 19.974 0 00-13.415-8.427 12.074 12.074 0 01-10.024-9.882 24.5 24.5 0 0021.841-13.638l4.132-8.4a4 4 0 00-4.329-5.7l-9.2 1.733a24.3 24.3 0 00-8.285 3.222c.027-.545.053-1.09.053-1.638a32.95 32.95 0 00-10.324-23.882c-.4-.376-.776-.767-1.146-1.164a24.512 24.512 0 0018.67-10.565l5.293-7.721a4 4 0 00-3.469-6.258l-9.353.4a24.493 24.493 0 00-17.756 8.831 24.863 24.863 0 011.6-10.5l2.488-6.476 1.573-.852a24.5 24.5 0 0012.746-23.038l-.6-9.342a4 4 0 00-6.592-2.785l-7.115 6.083a24.5 24.5 0 00-7.635 25.2l.368 1.305-2.7 7.04a33.244 33.244 0 00-1.32 4.339 24.265 24.265 0 00-6.631-4.252zm17.479 51.262l-.546-1.247 1.325.311a16.484 16.484 0 0111.75 10.578 16.485 16.485 0 01-12.529-9.642zm14.123 57.074l-1.362-.024.837-1.075a16.47 16.47 0 0114.515-6.263 16.528 16.528 0 01-13.99 7.362zm40.977-10.137l1.181-.677-.167 1.351a16.482 16.482 0 01-9.25 12.821 16.484 16.484 0 018.236-13.495zm-22.371-34.575l1.338-.252-.6 1.221a16.484 16.484 0 01-12.947 9.074 16.485 16.485 0 0112.213-10.043zm-9.695-47.485l1.361-.058-.77 1.123a16.482 16.482 0 01-14.112 7.127 16.484 16.484 0 0113.525-8.192zm-8.793-40l1.034-.884.087 1.358a16.482 16.482 0 01-6.709 14.315 16.483 16.483 0 015.592-14.781zm-16.541 47.36a16.487 16.487 0 01-10.665-11.671l-.321-1.322 1.252.536a16.48 16.48 0 019.734 12.457zM109.014 217.115a4 4 0 005.972-5.322l-22.975-25.782a4 4 0 00-5.973 5.322z"></path><path d="M192.28 273a4 4 0 005.465 1.459l25.925-15a4 4 0 00-4.006-6.924l-25.925 15A4 4 0 00192.28 273zM94.819 167.576l34.559 7.5a4 4 0 101.7-7.818l-34.558-7.5a4 4 0 00-1.7 7.819zM92.994 181.048l27.887 8.126a4 4 0 002.238-7.681l-27.887-8.125a4 4 0 00-2.238 7.68zM115.17 367.328a30.17 30.17 0 1030.169 30.172 30.2 30.2 0 00-30.169-30.172zm4.881 8.548l-4.881 11.433-4.881-11.433a22.011 22.011 0 019.762 0zm-4.881 43.791a22.162 22.162 0 01-12.236-40.645l8.557 20.045a4 4 0 007.358 0l8.557-20.045a22.162 22.162 0 01-12.236 40.645zM165.387 131.953l64.5 10a4.057 4.057 0 00.618.047 4 4 0 00.608-7.953l-64.5-10a4 4 0 00-1.226 7.906zM161.084 148.958l64.836 9.5a4.153 4.153 0 00.585.042 4 4 0 00.575-7.958l-64.836-9.5a4 4 0 10-1.16 7.916zM158.455 163.688l35.739 15a4 4 0 103.1-7.376l-35.739-15a4 4 0 10-3.1 7.376zM216 219.75a4 4 0 000 8h16a4 4 0 000-8zM232 244a4 4 0 000-8h-16a4 4 0 000 8zM361.814 411.22l14.509-12.93a4 4 0 00.325-5.647L366 380.7a4 4 0 00-5.648-.325l-15.243 13.583a146.515 146.515 0 01-20.181-30.5l.708-1.084a31.86 31.86 0 002.609-30.013l-.14-.325A32.116 32.116 0 00314.7 316.94l-13.255-7.64a4 4 0 00-5.883 2.519l-3.621 14.864a32.119 32.119 0 001.671 20.121l.122.283a31.9 31.9 0 0023.5 18.856c.737 1.52 1.5 3.023 2.291 4.517a36.491 36.491 0 00-17.037-2.366l-.415.041a36.778 36.778 0 00-21.094 9.457l-13.135 12.071a4 4 0 00.636 6.368l15.264 9.229a36.813 36.813 0 0018.967 5.27 36.07 36.07 0 003.583-.178l.361-.036a36.533 36.533 0 0027.5-17.141q2.409 3.105 4.985 6.1l-14.617 13.026a4 4 0 00-.326 5.648l10.644 11.951a4 4 0 005.647.325l15.343-13.673 17.349 17.254a4 4 0 105.64-5.672zm-33.524-23.884a28.546 28.546 0 01-22.431 15.022l-.361.036a28.755 28.755 0 01-17.614-3.977l-10.7-6.47 9.209-8.463a28.728 28.728 0 0116.477-7.387l.415-.041a28.5 28.5 0 0124.9 10.286l.381.464zm-27.2-43.4l-.122-.283a24.055 24.055 0 01-1.25-15.075l2.357-9.682 8.637 4.976a24.074 24.074 0 0110.049 11.314l.139.324a23.857 23.857 0 01-.05 18.929 149.676 149.676 0 01-3.536-9.415 4 4 0 10-7.582 2.552c.983 2.923 2.058 5.8 3.2 8.642a23.954 23.954 0 01-11.845-12.282zm37.065 77.655l-5.323-5.972 29.863-26.613 5.323 5.973z"></path><path d="M382.735 348.205l-48 16a4 4 0 102.53 7.59l48-16a4 4 0 00-2.53-7.59zM424 364h-32a4 4 0 000 8h32a4 4 0 000-8zM424 348h-24a4 4 0 000 8h24a4 4 0 000-8zM156 384v44.667a4 4 0 004 4c.077 0 .155 0 .233-.007l80-4.667A4 4 0 00244 424v-40a4 4 0 00-4-4h-80a4 4 0 00-4 4zm8 20.3l8-.066v19.726l-8 .466zm56-.467v17.327l-8.138.475.113-17.735zM203.858 422.1l-7.858.46v-18.526l7.975-.067zm-15.858.926l-8 .467v-19.326l8-.067zm40-2.333v-16.926l8-.067v16.527zM236 388v7.7l-72 .6V388zM80 268h32a4 4 0 000-8H80a4 4 0 000 8zM80 284h16a4 4 0 000-8H80a4 4 0 000 8zM124 296a4 4 0 00-4-4H80a4 4 0 000 8h40a4 4 0 004-4z"></path></g><!----></svg>