<svg xmlns="http://www.w3.org/2000/svg" viewBox="0 0 512 512" x="0px" y="0px"><g><path d="M319.112,130c.119,0,.239,0,.359-.016l52.55-4.666a4,4,0,0,0-.708-7.969l-52.549,4.667a4,4,0,0,0,.348,7.984Z"/><path d="M274,154.667a4.048,4.048,0,0,0,.882-.1l26.667-6a4,4,0,0,0-1.756-7.8l-26.667,6a4,4,0,0,0,.874,7.9Z"/><path d="M294.48,157.758l-18.333,4a4,4,0,0,0,.849,7.909,4.07,4.07,0,0,0,.857-.092l18.333-4a4,4,0,0,0-1.706-7.817Z"/><path d="M427.629,279.452a4,4,0,0,0-4.51-3.414l-45.79,6.333a4,4,0,0,0,.543,7.963,4.145,4.145,0,0,0,.553-.038l45.79-6.334A4,4,0,0,0,427.629,279.452Z"/><path d="M417.288,295.694l-39.876,4.667a4,4,0,0,0,.46,7.973,3.936,3.936,0,0,0,.47-.028l39.876-4.667a4,4,0,1,0-.93-7.945Z"/><path d="M344,284a12,12,0,1,0,12,12A12.013,12.013,0,0,0,344,284Zm0,16a4,4,0,1,1,4-4A4,4,0,0,1,344,300Z"/><path d="M340,328a12,12,0,1,0,12-12A12.013,12.013,0,0,0,340,328Zm16,0a4,4,0,1,1-4-4A4,4,0,0,1,356,328Z"/><path d="M372.071,328.754a3.993,3.993,0,0,0,4.683,3.174l33-6.333a4,4,0,1,0-1.508-7.857l-33,6.334A4,4,0,0,0,372.071,328.754Z"/><path d="M504,244H484V228h12a4,4,0,0,0,4-4V208a4,4,0,0,0-4-4H484V112a4,4,0,0,0-4-4H452V96a4,4,0,0,0-4.332-3.986L412,94.986V72a4,4,0,0,0-4-4H392a4,4,0,0,0-4,4V96.986l-8,.667V80a4,4,0,0,0-4-4H360a4,4,0,0,0-4,4V99.653l-99.917,8.326L64.5,84.031A4,4,0,0,0,60,88v4.911l-11.693-.9A4,4,0,0,0,44,96v12H32a4,4,0,0,0-4,4v36H16a4,4,0,0,0-4,4v16a4,4,0,0,0,4,4H28V364H8a4,4,0,0,0-4,4v16a4,4,0,0,0,4,4H28v92a4,4,0,0,0,4,4,3.8,3.8,0,0,0,.426-.023l75.574-8.1V500a4,4,0,0,0,4,4,3.958,3.958,0,0,0,.97-.12l16-4A4,4,0,0,0,132,496V473.3l124-13.281,223.574,23.954A3.8,3.8,0,0,0,480,484a4,4,0,0,0,4-4V268h20a4,4,0,0,0,4-4V248A4,4,0,0,0,504,244Zm-28,0h-8V228h8Zm-24-16h8V451.681l-8-.615Zm40-8H452v-8h40Zm-32-16h-8V132h8Zm16-88v88h-8V128a4,4,0,0,0-4-4H452v-8ZM396,76h8V95.653l-8,.666Zm-32,8h8V98.319l-8,.667ZM260,115.681l184-15.334V459.469l-184-23ZM52,459.512V172h8V448a4,4,0,0,0,4,4c.056,0,.111,0,.166,0l82.9-3.455ZM252,115.531V436.163L68,443.83V172H80a4,4,0,0,0,4-4V152a4,4,0,0,0-4-4H68V92.531Zm-192-14.6V148H52V100.319ZM36,116h8v32H36ZM20,156H76v8H20Zm16,16h8V364H36ZM12,372H44v8H12ZM36,475.549V388h8v76a4,4,0,0,0,4,4,4.168,4.168,0,0,0,.459-.026L108,461.1v6.732Zm80,19.328v-34.7l8-.923v33.62Zm360-19.329L256.426,452.023a4.044,4.044,0,0,0-.852,0L132,465.259v-6.925l123.981-14.305L447.5,467.969a3.944,3.944,0,0,0,.5.031,4,4,0,0,0,4-4v-4.911l11.693.9c.1.008.205.012.307.012a4,4,0,0,0,4-4V268h8ZM500,260H468v-8h32Z"/><path d="M102.851,47.832l40,12A4.024,4.024,0,0,0,144,60H396a16,16,0,0,0,0-32H372V16a4,4,0,0,0-4-4H288a4,4,0,0,0,0,8h76v8H144a4.024,4.024,0,0,0-1.149.168l-40,12a4,4,0,0,0,0,7.664ZM204,52V36H356V52Zm200-8a8.009,8.009,0,0,1-8,8H364V36h32A8.009,8.009,0,0,1,404,44ZM196,36V52H164V36Zm-51.413,0H156V52H144.587L117.92,44Z"/><path d="M421.624,192.457h0v0L409.541,146a4,4,0,0,0-4.878-2.864l-55.489,14.433-2.109-8.106a4,4,0,0,0-4.877-2.864L326.7,150.629a4,4,0,0,0-2.864,4.878l2.11,8.11-52.9,13.762a4,4,0,0,0-2.864,4.878l26.18,100.65a4,4,0,0,0,4.878,2.864l131.619-34.24a4,4,0,0,0,2.865-4.878Zm-33.34,36.754L409.4,207.686,401.4,234.917l-19.431,5.054Zm-47.954-73.86,4.028,15.484-7.743,2.014-4.028-15.484Zm-12.369,16.008,1.919,7.375a4,4,0,0,0,4.878,2.865l15.485-4.029a4,4,0,0,0,2.864-4.878l-1.919-7.378,51.618-13.426,10.506,40.391-29.247,29.808-61.817-23.675a4,4,0,0,0-4.286.934L290.24,227.6l-11.312-43.487ZM340.1,229.136a4,4,0,0,0-2.653-1.946L323.341,224.2l1.1-16.376,29.26,11.206-1.42,21.074-17.944,9.791,6.055-17.479A4,4,0,0,0,340.1,229.136Zm-37,47.885-10.507-40.392h0l23.51-23.962-.973,14.452a4,4,0,0,0,3.16,4.182l13.067,2.774-7.959,22.973a4,4,0,0,0,5.695,4.821l28.955-15.8a4,4,0,0,0,2.075-3.242l1.4-20.808,17.723,6.787-9.066,15.441a4,4,0,0,0,4.456,5.9l30.97-8.057a4,4,0,0,0,2.831-2.743l9.082-30.9,9.455,36.348Z"/><path d="M377.88,199.172a16.006,16.006,0,0,0,15.482-20.029h0a16,16,0,1,0-15.482,20.029Zm-2.017-23.744a8,8,0,1,1-5.728,9.757A7.987,7.987,0,0,1,375.863,175.428Z"/><path d="M126.221,221.653a4,4,0,0,0-5.464,4.619l2.209,9.1a24.5,24.5,0,0,0,19.022,18.2l2.933.576a4.005,4.005,0,0,0,.535.053,33.042,33.042,0,0,0,5.461,6.731,24.844,24.844,0,0,1,5.969,8.749,24.377,24.377,0,0,0-10.576-5.49L137.2,262.05a4,4,0,0,0-4.579,5.5l3.754,8.575A24.508,24.508,0,0,0,156.5,290.648l-1.481,5.608a19.852,19.852,0,0,0,6.088,20.108,24.386,24.386,0,0,0-10.119,7.613l-5.749,7.388a4,4,0,0,0,3.086,6.456l9.361.167c.144,0,.287,0,.431,0a24.507,24.507,0,0,0,21.033-12.02,12.034,12.034,0,0,1,2.325,7.138l-.16,11.706a20.138,20.138,0,0,0,8.035,16.337l17.889,13.38a4,4,0,1,0,4.791-6.406l-17.886-13.378a12.106,12.106,0,0,1-4.829-9.823l.036-2.632,1.612-.516a24.5,24.5,0,0,0,16.8-20.272l1.146-9.291a4,4,0,0,0-5.96-3.96l-8.121,4.658a24.381,24.381,0,0,0-8.877,8.812,19.974,19.974,0,0,0-13.415-8.427,12.074,12.074,0,0,1-10.024-9.882,24.5,24.5,0,0,0,21.841-13.638l4.132-8.4a4,4,0,0,0-4.329-5.7l-9.2,1.733a24.3,24.3,0,0,0-8.285,3.222c.027-.545.053-1.09.053-1.638A32.95,32.95,0,0,0,156.4,255.109c-.4-.376-.776-.767-1.146-1.164a24.512,24.512,0,0,0,18.67-10.565l5.293-7.721a4,4,0,0,0-3.469-6.258l-9.353.4a24.493,24.493,0,0,0-17.756,8.831,24.863,24.863,0,0,1,1.6-10.5l2.488-6.476,1.573-.852a24.5,24.5,0,0,0,12.746-23.038l-.6-9.342a4,4,0,0,0-6.592-2.785l-7.115,6.083a24.5,24.5,0,0,0-7.635,25.2l.368,1.305-2.7,7.04a33.244,33.244,0,0,0-1.32,4.339,24.265,24.265,0,0,0-6.631-4.252ZM143.7,272.915l-.546-1.247,1.325.311a16.484,16.484,0,0,1,11.75,10.578A16.485,16.485,0,0,1,143.7,272.915Zm14.123,57.074-1.362-.024.837-1.075a16.47,16.47,0,0,1,14.515-6.263A16.528,16.528,0,0,1,157.823,329.989ZM198.8,319.852l1.181-.677-.167,1.351a16.482,16.482,0,0,1-9.25,12.821A16.484,16.484,0,0,1,198.8,319.852Zm-22.371-34.575,1.338-.252-.6,1.221a16.484,16.484,0,0,1-12.947,9.074A16.485,16.485,0,0,1,176.433,285.277Zm-9.695-47.485,1.361-.058-.77,1.123a16.482,16.482,0,0,1-14.112,7.127A16.484,16.484,0,0,1,166.738,237.792Zm-8.793-40,1.034-.884.087,1.358a16.482,16.482,0,0,1-6.709,14.315A16.483,16.483,0,0,1,157.945,197.8ZM141.4,245.152a16.487,16.487,0,0,1-10.665-11.671l-.321-1.322,1.252.536A16.48,16.48,0,0,1,141.4,245.152Z"/><path d="M109.014,217.115a4,4,0,0,0,5.972-5.322L92.011,186.011a4,4,0,0,0-5.973,5.322Z"/><path d="M192.28,273a4,4,0,0,0,5.465,1.459l25.925-15a4,4,0,0,0-4.006-6.924l-25.925,15A4,4,0,0,0,192.28,273Z"/><path d="M94.819,167.576l34.559,7.5a4,4,0,1,0,1.7-7.818l-34.558-7.5a4,4,0,0,0-1.7,7.819Z"/><path d="M92.994,181.048l27.887,8.126a4,4,0,0,0,2.238-7.681l-27.887-8.125a4,4,0,0,0-2.238,7.68Z"/><path d="M115.17,367.328A30.17,30.17,0,1,0,145.339,397.5,30.2,30.2,0,0,0,115.17,367.328Zm4.881,8.548-4.881,11.433-4.881-11.433a22.011,22.011,0,0,1,9.762,0Zm-4.881,43.791a22.162,22.162,0,0,1-12.236-40.645l8.557,20.045a4,4,0,0,0,7.358,0l8.557-20.045a22.162,22.162,0,0,1-12.236,40.645Z"/><path d="M165.387,131.953l64.5,10a4.057,4.057,0,0,0,.618.047,4,4,0,0,0,.608-7.953l-64.5-10a4,4,0,0,0-1.226,7.906Z"/><path d="M161.084,148.958l64.836,9.5a4.153,4.153,0,0,0,.585.042,4,4,0,0,0,.575-7.958l-64.836-9.5a4,4,0,1,0-1.16,7.916Z"/><path d="M158.455,163.688l35.739,15a4,4,0,1,0,3.1-7.376l-35.739-15a4,4,0,1,0-3.1,7.376Z"/><path d="M216,219.75a4,4,0,0,0,0,8h16a4,4,0,0,0,0-8Z"/><path d="M232,244a4,4,0,0,0,0-8H216a4,4,0,0,0,0,8Z"/><path d="M361.814,411.22l14.509-12.93a4,4,0,0,0,.325-5.647L366,380.7a4,4,0,0,0-5.648-.325l-15.243,13.583a146.515,146.515,0,0,1-20.181-30.5l.708-1.084a31.86,31.86,0,0,0,2.609-30.013l-.14-.325A32.116,32.116,0,0,0,314.7,316.94L301.445,309.3a4,4,0,0,0-5.883,2.519l-3.621,14.864a32.119,32.119,0,0,0,1.671,20.121l.122.283a31.9,31.9,0,0,0,23.5,18.856c.737,1.52,1.5,3.023,2.291,4.517a36.491,36.491,0,0,0-17.037-2.366l-.415.041a36.778,36.778,0,0,0-21.094,9.457l-13.135,12.071a4,4,0,0,0,.636,6.368l15.264,9.229a36.813,36.813,0,0,0,18.967,5.27c1.194,0,2.392-.059,3.583-.178l.361-.036a36.533,36.533,0,0,0,27.5-17.141q2.409,3.105,4.985,6.1l-14.617,13.026a4,4,0,0,0-.326,5.648L334.841,429.9a4,4,0,0,0,5.647.325l15.343-13.673,17.349,17.254a4,4,0,1,0,5.64-5.672ZM328.29,387.336a28.546,28.546,0,0,1-22.431,15.022l-.361.036a28.755,28.755,0,0,1-17.614-3.977l-10.7-6.47,9.209-8.463a28.728,28.728,0,0,1,16.477-7.387l.415-.041a28.5,28.5,0,0,1,24.9,10.286l.381.464Zm-27.2-43.4-.122-.283a24.055,24.055,0,0,1-1.25-15.075l2.357-9.682,8.637,4.976a24.074,24.074,0,0,1,10.049,11.314l.139.324a23.857,23.857,0,0,1-.05,18.929c-1.276-3.088-2.462-6.224-3.536-9.415a4,4,0,1,0-7.582,2.552c.983,2.923,2.058,5.8,3.2,8.642A23.954,23.954,0,0,1,301.087,343.936Zm37.065,77.655-5.323-5.972,29.863-26.613,5.323,5.973Z"/><path d="M382.735,348.205l-48,16a4,4,0,1,0,2.53,7.59l48-16a4,4,0,0,0-2.53-7.59Z"/><path d="M424,364H392a4,4,0,0,0,0,8h32a4,4,0,0,0,0-8Z"/><path d="M424,348H400a4,4,0,0,0,0,8h24a4,4,0,0,0,0-8Z"/><path d="M156,384v44.667a4,4,0,0,0,4,4c.077,0,.155,0,.233-.007l80-4.667A4,4,0,0,0,244,424V384a4,4,0,0,0-4-4H160A4,4,0,0,0,156,384Zm8,20.3,8-.066V423.96l-8,.466Zm56-.467V421.16l-8.138.475.113-17.735ZM203.858,422.1,196,422.56V404.034l7.975-.067ZM188,423.026l-8,.467V404.167l8-.067Zm40-2.333V403.767l8-.067v16.527ZM236,388v7.7l-72,.6V388Z"/><path d="M80,268h32a4,4,0,0,0,0-8H80a4,4,0,0,0,0,8Z"/><path d="M80,284H96a4,4,0,0,0,0-8H80a4,4,0,0,0,0,8Z"/><path d="M124,296a4,4,0,0,0-4-4H80a4,4,0,0,0,0,8h40A4,4,0,0,0,124,296Z"/></g></svg>