<svg data-v-fde0c5aa="" xmlns="http://www.w3.org/2000/svg" viewBox="0 0 300 300" class="iconLeft"><!----><defs data-v-fde0c5aa=""><!----></defs><rect data-v-fde0c5aa="" fill="transparent" x="0" y="0" width="300px" height="300px" class="logo-background-square"></rect><defs data-v-fde0c5aa=""><!----></defs><g data-v-fde0c5aa="" id="14392b05-3425-4331-8b86-32e771120501" fill="#000000" transform="matrix(1.8654945015434492,0,0,1.8654945015434492,88.1190723618746,130.4123077337938)"><path d="M0.03 14.01Q-0.11 14.01-0.11 13.87L-0.11 13.87Q-0.11 13.79-0.05 13.71Q0.01 13.62 0.11 13.62L0.11 13.62L0.64 13.62Q0.78 13.62 0.91 13.51Q1.04 13.40 1.06 13.24L1.06 13.24L2.91 5.19L2.91 5.11Q2.91 4.98 2.85 4.90Q2.79 4.82 2.67 4.82L2.67 4.82L2.14 4.82Q2.02 4.82 2.02 4.66L2.02 4.66Q2.02 4.56 2.08 4.49Q2.14 4.41 2.24 4.41L2.24 4.41L5.52 4.41Q7.20 4.41 8.21 5.20Q9.23 5.99 9.23 7.66L9.23 7.66Q9.23 8.39 9.04 9.21L9.04 9.21Q8.65 10.88 7.78 11.96Q6.92 13.03 5.76 13.52Q4.61 14.01 3.30 14.01L3.30 14.01L0.03 14.01ZM2.27 13.62L3.05 13.62Q4.35 13.62 5.18 13.29Q6.01 12.95 6.57 12.08Q7.13 11.20 7.50 9.55L7.50 9.55L7.66 8.83Q7.91 7.78 7.91 7.06L7.91 7.06Q7.91 5.78 7.23 5.30Q6.55 4.82 5.22 4.82L5.22 4.82L4.31 4.82L2.27 13.62ZM11.26 14.20Q10.88 14.20 10.49 14.01Q10.09 13.82 9.82 13.40Q9.55 12.98 9.55 12.31L9.55 12.31Q9.55 11.45 9.97 10.49Q10.40 9.53 11.09 8.88Q11.79 8.23 12.53 8.23L12.53 8.23Q12.92 8.23 13.24 8.45Q13.57 8.67 13.75 8.95L13.75 8.95Q13.79 9.00 13.85 9.00L13.85 9.00Q13.94 9.00 13.97 8.90L13.97 8.90L14.06 8.61Q14.10 8.43 14.28 8.43L14.28 8.43L14.73 8.43Q14.95 8.43 14.91 8.67L14.91 8.67Q13.87 12.84 13.87 13.34L13.87 13.34Q13.87 13.51 13.96 13.61Q14.06 13.71 14.20 13.71L14.20 13.71Q14.49 13.71 14.83 13.25Q15.16 12.80 15.48 12.03L15.48 12.03L15.64 12.07Q15.19 13.13 14.78 13.64Q14.36 14.15 13.71 14.15L13.71 14.15Q13.30 14.15 13.16 13.96Q13.02 13.76 12.94 13.37L12.94 13.37Q12.92 13.22 12.82 13.33L12.82 13.33Q12.40 13.75 12.05 13.97Q11.69 14.20 11.26 14.20L11.26 14.20ZM11.35 13.83Q12.03 13.83 12.45 13.38Q12.87 12.94 13.15 12.13Q13.43 11.33 13.73 9.90L13.73 9.90Q13.73 9.41 13.50 8.97Q13.27 8.54 12.78 8.54L12.78 8.54Q12.12 8.54 11.60 9.22Q11.07 9.90 10.78 10.89Q10.49 11.87 10.49 12.70L10.49 12.70Q10.49 13.26 10.67 13.55Q10.86 13.83 11.35 13.83L11.35 13.83ZM19.07 6.41Q18.89 6.41 18.76 6.27Q18.63 6.13 18.63 5.92L18.63 5.92Q18.63 5.63 18.87 5.36Q19.10 5.08 19.38 5.08L19.38 5.08Q19.59 5.08 19.73 5.24Q19.87 5.39 19.87 5.60L19.87 5.60Q19.87 5.88 19.61 6.15Q19.36 6.41 19.07 6.41L19.07 6.41ZM17.84 14.15Q17.49 14.15 17.23 13.94Q16.97 13.72 16.97 13.29L16.97 13.29Q16.97 12.92 17.14 12.39Q17.30 11.86 17.64 10.95L17.64 10.95Q17.68 10.82 17.86 10.34Q18.03 9.86 18.12 9.54Q18.20 9.23 18.20 9.04L18.20 9.04Q18.20 8.88 18.13 8.76Q18.06 8.65 17.92 8.65L17.92 8.65Q17.61 8.65 17.26 9.11Q16.91 9.58 16.60 10.35L16.60 10.35L16.44 10.30Q16.86 9.35 17.29 8.79Q17.72 8.23 18.33 8.23L18.33 8.23Q18.69 8.23 18.91 8.44Q19.14 8.64 19.14 9.04L19.14 9.04Q19.14 9.39 18.98 9.92Q18.82 10.44 18.52 11.23L18.52 11.23Q18.21 12.07 18.07 12.51Q17.93 12.95 17.93 13.26L17.93 13.26Q17.93 13.71 18.24 13.71L18.24 13.71Q18.56 13.71 18.90 13.24Q19.24 12.77 19.54 12.03L19.54 12.03L19.70 12.07Q19.29 13.05 18.87 13.60Q18.45 14.15 17.84 14.15L17.84 14.15ZM23.45 4.75L21.59 13.03Q21.55 13.20 21.55 13.31L21.55 13.31Q21.55 13.71 21.90 13.71L21.90 13.71Q22.50 13.71 23.20 12.03L23.20 12.03L23.35 12.07Q22.92 13.06 22.51 13.61Q22.11 14.15 21.49 14.15L21.49 14.15Q21.14 14.15 20.89 13.97Q20.64 13.78 20.64 13.34L20.64 13.34Q20.64 13.19 20.68 12.98L20.68 12.98L22.46 5.19Q22.47 5.14 22.47 5.05L22.47 5.05Q22.47 4.80 22.27 4.75Q22.06 4.70 21.69 4.70L21.69 4.70Q21.50 4.70 21.50 4.56L21.50 4.56Q21.50 4.48 21.55 4.45Q21.59 4.41 21.69 4.41L21.69 4.41L23.23 4.41Q23.46 4.41 23.46 4.63L23.46 4.63Q23.46 4.70 23.45 4.75L23.45 4.75ZM25.31 16.53Q24.65 16.53 24.21 16.27Q23.77 16.00 23.77 15.54L23.77 15.54Q23.77 15.27 23.92 15.09Q24.07 14.91 24.42 14.91L24.42 14.91Q24.67 14.91 24.82 15.04Q24.96 15.16 24.96 15.41L24.96 15.41Q24.96 15.55 24.90 15.72Q24.84 15.88 24.84 15.92L24.84 15.92Q24.84 16.28 25.55 16.28L25.55 16.28Q26.14 16.28 26.52 15.94Q26.91 15.60 27.17 14.92Q27.44 14.24 27.79 12.96L27.79 12.96L27.72 12.96Q27.47 13.33 26.99 13.73Q26.52 14.14 25.86 14.14L25.86 14.14Q25.31 14.14 25.07 13.80Q24.82 13.47 24.82 13.08L24.82 13.08Q24.82 12.84 24.93 12.33Q25.03 11.82 25.13 11.44Q25.23 11.06 25.27 10.86L25.27 10.86Q25.68 9.32 25.68 8.96L25.68 8.96Q25.68 8.65 25.45 8.65L25.45 8.65Q25.13 8.65 24.77 9.14Q24.40 9.63 24.14 10.35L24.14 10.35L23.97 10.30Q24.39 9.32 24.81 8.78Q25.23 8.23 25.80 8.23L25.80 8.23Q26.14 8.23 26.37 8.41Q26.60 8.58 26.60 8.96L26.60 8.96Q26.60 9.38 26.19 10.84L26.19 10.84Q25.98 11.61 25.88 12.08Q25.77 12.56 25.77 12.85L25.77 12.85Q25.77 13.52 26.40 13.52L26.40 13.52Q27.01 13.52 27.42 12.92Q27.83 12.32 28.10 11.40Q28.36 10.49 28.74 8.83L28.74 8.83Q28.78 8.71 28.84 8.43L28.84 8.43L29.75 8.43L28.74 12.96Q28.28 14.98 27.41 15.76Q26.54 16.53 25.31 16.53L25.31 16.53ZM34.87 14.20Q34.05 14.20 33.64 13.83Q33.24 13.45 33.24 12.84L33.24 12.84Q33.24 12.39 33.46 12.07L33.46 12.07Q33.63 11.82 33.88 11.63Q34.13 11.44 34.41 11.44L34.41 11.44Q34.66 11.44 34.80 11.59Q34.94 11.73 34.94 11.98L34.94 11.98Q34.94 12.36 34.71 12.64Q34.48 12.92 34.13 12.92L34.13 12.92Q34.06 12.92 33.98 13.01Q33.91 13.09 33.88 13.19L33.88 13.19Q33.82 13.43 34.01 13.63Q34.20 13.83 34.68 13.83L34.68 13.83Q35.32 13.83 35.72 13.47Q36.12 13.10 36.34 12.54Q36.55 11.97 36.75 11.07L36.75 11.07L38.08 5.22L38.08 5.17Q38.08 5.03 38.00 4.96Q37.93 4.89 37.80 4.89L37.80 4.89L37.24 4.89Q37.11 4.89 37.11 4.72L37.11 4.72Q37.11 4.49 37.34 4.49L37.34 4.49L40.46 4.49Q40.63 4.49 40.63 4.62L40.63 4.62Q40.63 4.72 40.55 4.80Q40.47 4.89 40.38 4.89L40.38 4.89L39.82 4.89Q39.66 4.89 39.53 4.98Q39.40 5.08 39.37 5.22L39.37 5.22L37.98 11.27Q37.77 12.26 37.06 13.23Q36.34 14.20 34.87 14.20L34.87 14.20ZM41.71 14.14Q40.85 14.14 40.33 13.53Q39.80 12.92 39.80 11.97L39.80 11.97Q39.80 11.06 40.27 10.19Q40.74 9.32 41.50 8.78Q42.25 8.23 43.05 8.23L43.05 8.23Q43.89 8.23 44.39 8.85Q44.88 9.46 44.88 10.42L44.88 10.42Q44.88 11.34 44.43 12.20Q43.97 13.06 43.24 13.60Q42.50 14.14 41.71 14.14L41.71 14.14ZM41.75 13.89Q42.36 13.89 42.85 13.24Q43.33 12.59 43.60 11.64Q43.86 10.70 43.86 9.91L43.86 9.91Q43.86 9.24 43.64 8.87Q43.41 8.50 42.98 8.50L42.98 8.50Q42.38 8.50 41.89 9.16Q41.40 9.83 41.13 10.77Q40.85 11.72 40.85 12.49L40.85 12.49Q40.85 13.16 41.08 13.52Q41.31 13.89 41.75 13.89L41.75 13.89ZM50.06 14.15Q49.66 14.15 49.45 13.93Q49.25 13.71 49.25 13.37L49.25 13.37Q49.25 13.26 49.27 13.13Q49.29 13.01 49.29 12.96L49.29 12.96L49.22 12.96Q48.97 13.33 48.50 13.73Q48.02 14.14 47.36 14.14L47.36 14.14Q46.82 14.14 46.57 13.80Q46.33 13.47 46.33 13.08L46.33 13.08Q46.33 12.66 46.49 12.09Q46.65 11.52 46.93 10.72L46.93 10.72Q47.17 10.04 47.28 9.64Q47.39 9.24 47.39 8.99L47.39 8.99Q47.39 8.65 47.14 8.65L47.14 8.65Q46.76 8.65 46.42 9.23Q46.07 9.80 45.82 10.42L45.82 10.42L45.61 10.42Q46.07 9.25 46.52 8.74Q46.97 8.23 47.63 8.23L47.63 8.23Q48.01 8.23 48.16 8.40Q48.31 8.57 48.31 8.90L48.31 8.90Q48.31 9.23 48.18 9.70Q48.05 10.16 47.80 10.86L47.80 10.86Q47.52 11.72 47.40 12.12Q47.28 12.53 47.28 12.85L47.28 12.85Q47.28 13.17 47.43 13.35Q47.59 13.52 47.85 13.52L47.85 13.52Q48.47 13.52 48.87 12.97Q49.28 12.42 49.55 11.52Q49.81 10.63 50.19 8.93L50.19 8.93L50.26 8.62Q50.30 8.43 50.48 8.43L50.48 8.43L50.97 8.43Q51.09 8.43 51.13 8.49Q51.18 8.55 51.16 8.65L51.16 8.65L51.02 9.20Q50.13 12.68 50.13 13.30L50.13 13.30Q50.13 13.54 50.23 13.62Q50.32 13.71 50.48 13.71L50.48 13.71Q50.78 13.71 51.11 13.26Q51.44 12.81 51.76 12.03L51.76 12.03L51.93 12.07Q51.49 13.06 51.09 13.61Q50.68 14.15 50.06 14.15L50.06 14.15ZM53.41 14.01Q53.31 14.01 53.26 13.95Q53.20 13.89 53.23 13.78L53.23 13.78L53.56 12.39Q53.91 10.93 54.07 10.21Q54.22 9.49 54.22 9.10L54.22 9.10Q54.22 8.65 54.00 8.65L54.00 8.65Q53.70 8.65 53.35 9.14Q52.99 9.62 52.71 10.35L52.71 10.35L52.54 10.30Q52.96 9.32 53.38 8.78Q53.80 8.23 54.39 8.23L54.39 8.23Q55.17 8.23 55.17 9.04L55.17 9.04Q55.17 9.30 55.08 9.72L55.08 9.72Q55.09 9.69 55.30 9.30Q55.51 8.92 55.96 8.58Q56.41 8.23 56.91 8.23L56.91 8.23Q57.27 8.25 57.46 8.41Q57.64 8.58 57.64 8.86L57.64 8.86Q57.64 8.93 57.61 9.10L57.61 9.10Q57.55 9.41 57.35 9.62Q57.15 9.83 56.88 9.83L56.88 9.83Q56.71 9.83 56.61 9.72Q56.50 9.62 56.50 9.41L56.50 9.41Q56.50 9.25 56.55 9.16Q56.60 9.07 56.70 8.97L56.70 8.97Q56.83 8.82 56.83 8.72L56.83 8.72Q56.83 8.55 56.62 8.55L56.62 8.55Q56.34 8.55 55.99 8.81Q55.64 9.07 55.31 9.60Q54.99 10.14 54.81 10.91L54.81 10.91L54.15 13.83Q54.11 14.01 53.93 14.01L53.93 14.01L53.41 14.01ZM62.06 14.15Q61.70 14.15 61.45 13.94Q61.21 13.72 61.21 13.19L61.21 13.19Q61.21 12.78 61.33 12.31Q61.45 11.84 61.70 11.09L61.70 11.09Q61.89 10.49 62.00 10.10Q62.10 9.72 62.10 9.44L62.10 9.44Q62.10 8.83 61.53 8.83L61.53 8.83Q60.97 8.83 60.58 9.35Q60.20 9.87 59.94 10.67Q59.68 11.47 59.30 12.98L59.30 12.98L59.09 13.83Q59.05 14.01 58.87 14.01L58.87 14.01L58.31 14.01Q58.20 14.01 58.15 13.94Q58.10 13.87 58.13 13.78L58.13 13.78Q58.23 13.36 58.69 11.51L58.69 11.51Q58.94 10.54 59.07 9.98Q59.19 9.41 59.19 9.09L59.19 9.09Q59.19 8.64 58.91 8.64L58.91 8.64Q58.62 8.64 58.25 9.11Q57.89 9.58 57.60 10.32L57.60 10.32L57.43 10.28Q57.83 9.34 58.26 8.79Q58.69 8.23 59.32 8.23L59.32 8.23Q59.78 8.23 59.94 8.45Q60.10 8.67 60.10 9.00L60.10 9.00L60.09 9.34Q60.09 9.46 60.13 9.46L60.13 9.46Q60.16 9.46 60.21 9.41L60.21 9.41Q60.27 9.34 60.52 9.02Q60.76 8.71 61.19 8.47Q61.61 8.23 62.16 8.23L62.16 8.23Q63.14 8.23 63.14 9.10L63.14 9.10Q63.14 9.44 63.03 9.86Q62.92 10.29 62.71 10.95L62.71 10.95Q62.47 11.68 62.33 12.19Q62.20 12.71 62.20 13.16L62.20 13.16Q62.20 13.45 62.27 13.58Q62.34 13.71 62.50 13.71L62.50 13.71Q63.08 13.71 63.78 12.03L63.78 12.03L63.94 12.07Q63.50 13.09 63.09 13.62Q62.68 14.15 62.06 14.15L62.06 14.15ZM66.26 14.20Q65.88 14.20 65.49 14.01Q65.10 13.82 64.83 13.40Q64.55 12.98 64.55 12.31L64.55 12.31Q64.55 11.45 64.98 10.49Q65.41 9.53 66.10 8.88Q66.79 8.23 67.54 8.23L67.54 8.23Q67.93 8.23 68.25 8.45Q68.57 8.67 68.75 8.95L68.75 8.95Q68.80 9.00 68.85 9.00L68.85 9.00Q68.95 9.00 68.98 8.90L68.98 8.90L69.06 8.61Q69.10 8.43 69.29 8.43L69.29 8.43L69.73 8.43Q69.96 8.43 69.92 8.67L69.92 8.67Q68.88 12.84 68.88 13.34L68.88 13.34Q68.88 13.51 68.97 13.61Q69.06 13.71 69.20 13.71L69.20 13.71Q69.50 13.71 69.83 13.25Q70.17 12.80 70.49 12.03L70.49 12.03L70.64 12.07Q70.20 13.13 69.78 13.64Q69.37 14.15 68.71 14.15L68.71 14.15Q68.31 14.15 68.17 13.96Q68.03 13.76 67.94 13.37L67.94 13.37Q67.93 13.22 67.83 13.33L67.83 13.33Q67.41 13.75 67.05 13.97Q66.70 14.20 66.26 14.20L66.26 14.20ZM66.36 13.83Q67.03 13.83 67.45 13.38Q67.87 12.94 68.15 12.13Q68.43 11.33 68.74 9.90L68.74 9.90Q68.74 9.41 68.51 8.97Q68.28 8.54 67.79 8.54L67.79 8.54Q67.13 8.54 66.60 9.22Q66.08 9.90 65.79 10.89Q65.49 11.87 65.49 12.70L65.49 12.70Q65.49 13.26 65.68 13.55Q65.87 13.83 66.36 13.83L66.36 13.83ZM74.40 4.75L72.53 13.03Q72.49 13.20 72.49 13.31L72.49 13.31Q72.49 13.71 72.84 13.71L72.84 13.71Q73.44 13.71 74.14 12.03L74.14 12.03L74.30 12.07Q73.86 13.06 73.46 13.61Q73.05 14.15 72.44 14.15L72.44 14.15Q72.09 14.15 71.83 13.97Q71.58 13.78 71.58 13.34L71.58 13.34Q71.58 13.19 71.62 12.98L71.62 12.98L73.40 5.19Q73.42 5.14 73.42 5.05L73.42 5.05Q73.42 4.80 73.21 4.75Q73.01 4.70 72.63 4.70L72.63 4.70Q72.45 4.70 72.45 4.56L72.45 4.56Q72.45 4.48 72.49 4.45Q72.53 4.41 72.63 4.41L72.63 4.41L74.17 4.41Q74.41 4.41 74.41 4.63L74.41 4.63Q74.41 4.70 74.40 4.75L74.40 4.75ZM77.64 6.41Q77.46 6.41 77.34 6.27Q77.21 6.13 77.21 5.92L77.21 5.92Q77.21 5.63 77.44 5.36Q77.67 5.08 77.95 5.08L77.95 5.08Q78.16 5.08 78.30 5.24Q78.44 5.39 78.44 5.60L78.44 5.60Q78.44 5.88 78.19 6.15Q77.94 6.41 77.64 6.41L77.64 6.41ZM76.41 14.15Q76.06 14.15 75.80 13.94Q75.54 13.72 75.54 13.29L75.54 13.29Q75.54 12.92 75.71 12.39Q75.88 11.86 76.22 10.95L76.22 10.95Q76.26 10.82 76.43 10.34Q76.61 9.86 76.69 9.54Q76.78 9.23 76.78 9.04L76.78 9.04Q76.78 8.88 76.71 8.76Q76.64 8.65 76.50 8.65L76.50 8.65Q76.19 8.65 75.84 9.11Q75.49 9.58 75.18 10.35L75.18 10.35L75.01 10.30Q75.43 9.35 75.87 8.79Q76.30 8.23 76.90 8.23L76.90 8.23Q77.27 8.23 77.49 8.44Q77.71 8.64 77.71 9.04L77.71 9.04Q77.71 9.39 77.55 9.92Q77.39 10.44 77.10 11.23L77.10 11.23Q76.79 12.07 76.65 12.51Q76.51 12.95 76.51 13.26L76.51 13.26Q76.51 13.71 76.82 13.71L76.82 13.71Q77.14 13.71 77.48 13.24Q77.81 12.77 78.12 12.03L78.12 12.03L78.27 12.07Q77.87 13.05 77.45 13.60Q77.03 14.15 76.41 14.15L76.41 14.15ZM83.61 14.15Q83.24 14.15 83.00 13.94Q82.75 13.72 82.75 13.19L82.75 13.19Q82.75 12.78 82.87 12.31Q82.99 11.84 83.24 11.09L83.24 11.09Q83.44 10.49 83.55 10.10Q83.65 9.72 83.65 9.44L83.65 9.44Q83.65 8.83 83.08 8.83L83.08 8.83Q82.52 8.83 82.13 9.35Q81.75 9.87 81.49 10.67Q81.23 11.47 80.85 12.98L80.85 12.98L80.64 13.83Q80.60 14.01 80.42 14.01L80.42 14.01L79.86 14.01Q79.74 14.01 79.69 13.94Q79.65 13.87 79.67 13.78L79.67 13.78Q79.77 13.36 80.23 11.51L80.23 11.51Q80.49 10.54 80.61 9.98Q80.74 9.41 80.74 9.09L80.74 9.09Q80.74 8.64 80.46 8.64L80.46 8.64Q80.16 8.64 79.80 9.11Q79.44 9.58 79.14 10.32L79.14 10.32L78.97 10.28Q79.38 9.34 79.81 8.79Q80.23 8.23 80.86 8.23L80.86 8.23Q81.33 8.23 81.49 8.45Q81.65 8.67 81.65 9.00L81.65 9.00L81.63 9.34Q81.63 9.46 81.68 9.46L81.68 9.46Q81.70 9.46 81.76 9.41L81.76 9.41Q81.82 9.34 82.06 9.02Q82.31 8.71 82.73 8.47Q83.16 8.23 83.71 8.23L83.71 8.23Q84.69 8.23 84.69 9.10L84.69 9.10Q84.69 9.44 84.57 9.86Q84.46 10.29 84.25 10.95L84.25 10.95Q84.01 11.68 83.88 12.19Q83.75 12.71 83.75 13.16L83.75 13.16Q83.75 13.45 83.82 13.58Q83.89 13.71 84.04 13.71L84.04 13.71Q84.63 13.71 85.33 12.03L85.33 12.03L85.48 12.07Q85.05 13.09 84.64 13.62Q84.22 14.15 83.61 14.15L83.61 14.15ZM92.13 8.68Q92.16 8.92 92.06 9.07Q91.97 9.21 91.76 9.21L91.76 9.21Q91.62 9.21 91.55 9.16Q91.48 9.10 91.39 8.98Q91.31 8.86 91.21 8.86L91.21 8.86Q90.94 8.86 90.94 9.58L90.94 9.58L90.96 9.91Q91 10.58 90.66 11.11Q90.31 11.63 89.73 11.93Q89.15 12.22 88.51 12.22L88.51 12.22Q88.14 12.22 87.88 12.12L87.88 12.12Q87.36 12.18 87.14 12.38Q86.91 12.57 86.91 12.78L86.91 12.78Q86.91 13.02 87.22 13.10Q87.53 13.17 88.24 13.23L88.24 13.23Q88.84 13.26 89.11 13.30L89.11 13.30Q89.95 13.41 90.40 13.71Q90.85 14.01 90.85 14.70L90.85 14.70Q90.85 15.61 90.04 16.10Q89.24 16.59 87.78 16.59L87.78 16.59Q85.65 16.59 85.65 15.46L85.65 15.46Q85.65 14.94 86.03 14.62Q86.41 14.29 87.11 14.03L87.11 14.03Q86.62 13.96 86.39 13.76Q86.16 13.55 86.16 13.16L86.16 13.16Q86.16 12.70 86.51 12.44Q86.87 12.18 87.64 12.03L87.64 12.03Q86.70 11.55 86.70 10.47L86.70 10.47Q86.70 9.83 87.02 9.32Q87.35 8.81 87.90 8.52Q88.45 8.23 89.10 8.23L89.10 8.23Q89.71 8.23 90.15 8.50Q90.59 8.76 90.80 9.24L90.80 9.24Q90.86 8.65 91.11 8.44Q91.35 8.23 91.63 8.23L91.63 8.23Q92.11 8.23 92.13 8.68L92.13 8.68ZM88.56 11.98Q88.93 11.98 89.25 11.74Q89.57 11.49 89.77 11.02Q89.96 10.54 89.96 9.88L89.96 9.88Q89.96 9.21 89.76 8.84Q89.56 8.47 89.05 8.47L89.05 8.47Q88.42 8.47 88.05 9.05Q87.67 9.63 87.67 10.46L87.67 10.46Q87.67 11.98 88.56 11.98L88.56 11.98ZM87.96 14.14Q87.84 14.11 87.56 14.11L87.56 14.11Q86.48 14.53 86.48 15.41L86.48 15.41Q86.48 15.88 86.83 16.09Q87.19 16.31 88.10 16.31L88.10 16.31Q89.19 16.31 89.71 16.00Q90.23 15.68 90.23 15.15L90.23 15.15Q90.23 14.76 89.95 14.56Q89.67 14.36 89.24 14.29Q88.80 14.21 87.96 14.14L87.96 14.14Z"></path></g><defs data-v-fde0c5aa=""><linearGradient data-v-fde0c5aa="" gradientTransform="rotate(25)" id="3344078a-7efd-4b14-9a40-41b2a9839df2" x1="0%" y1="0%" x2="100%" y2="0%"><stop data-v-fde0c5aa="" offset="0%" stop-color="#E98E0D" stop-opacity="1"></stop><stop data-v-fde0c5aa="" offset="100%" stop-color="#1536F1" stop-opacity="1"></stop></linearGradient></defs><g data-v-fde0c5aa="" id="04a6039a-0555-4085-939c-42378e4a65a5" stroke="none" fill="url(#3344078a-7efd-4b14-9a40-41b2a9839df2)" transform="matrix(0.06927354755519192,0,0,0.06927354755519192,39.722905809779235,132.12742473076048)"><path d="M319.112 130c.119 0 .239 0 .359-.016l52.55-4.666a4 4 0 00-.708-7.969l-52.549 4.667a4 4 0 00.348 7.984zM274 154.667a4.048 4.048 0 00.882-.1l26.667-6a4 4 0 00-1.756-7.8l-26.667 6a4 4 0 00.874 7.9zM294.48 157.758l-18.333 4a4 4 0 00.849 7.909 4.07 4.07 0 00.857-.092l18.333-4a4 4 0 00-1.706-7.817zM427.629 279.452a4 4 0 00-4.51-3.414l-45.79 6.333a4 4 0 00.543 7.963 4.145 4.145 0 00.553-.038l45.79-6.334a4 4 0 003.414-4.51zM417.288 295.694l-39.876 4.667a4 4 0 00.46 7.973 3.936 3.936 0 00.47-.028l39.876-4.667a4 4 0 10-.93-7.945zM344 284a12 12 0 1012 12 12.013 12.013 0 00-12-12zm0 16a4 4 0 114-4 4 4 0 01-4 4zM340 328a12 12 0 1012-12 12.013 12.013 0 00-12 12zm16 0a4 4 0 11-4-4 4 4 0 014 4zM372.071 328.754a3.993 3.993 0 004.683 3.174l33-6.333a4 4 0 10-1.508-7.857l-33 6.334a4 4 0 00-3.175 4.682z"></path><path d="M504 244h-20v-16h12a4 4 0 004-4v-16a4 4 0 00-4-4h-12v-92a4 4 0 00-4-4h-28V96a4 4 0 00-4.332-3.986L412 94.986V72a4 4 0 00-4-4h-16a4 4 0 00-4 4v24.986l-8 .667V80a4 4 0 00-4-4h-16a4 4 0 00-4 4v19.653l-99.917 8.326L64.5 84.031A4 4 0 0060 88v4.911l-11.693-.9A4 4 0 0044 96v12H32a4 4 0 00-4 4v36H16a4 4 0 00-4 4v16a4 4 0 004 4h12v192H8a4 4 0 00-4 4v16a4 4 0 004 4h20v92a4 4 0 004 4 3.8 3.8 0 00.426-.023l75.574-8.1V500a4 4 0 004 4 3.958 3.958 0 00.97-.12l16-4A4 4 0 00132 496v-22.7l124-13.281 223.574 23.954A3.8 3.8 0 00480 484a4 4 0 004-4V268h20a4 4 0 004-4v-16a4 4 0 00-4-4zm-28 0h-8v-16h8zm-24-16h8v223.681l-8-.615zm40-8h-40v-8h40zm-32-16h-8v-72h8zm16-88v88h-8v-76a4 4 0 00-4-4h-12v-8zm-80-40h8v19.653l-8 .666zm-32 8h8v14.319l-8 .667zm-104 31.681l184-15.334v359.122l-184-23zM52 459.512V172h8v276a4 4 0 004 4h.166l82.9-3.455zm200-343.981v320.632L68 443.83V172h12a4 4 0 004-4v-16a4 4 0 00-4-4H68V92.531zm-192-14.6V148h-8v-47.681zM36 116h8v32h-8zm-16 40h56v8H20zm16 16h8v192h-8zM12 372h32v8H12zm24 103.549V388h8v76a4 4 0 004 4 4.168 4.168 0 00.459-.026L108 461.1v6.732zm80 19.328v-34.7l8-.923v33.62zm360-19.329l-219.574-23.525a4.044 4.044 0 00-.852 0L132 465.259v-6.925l123.981-14.305 191.519 23.94a3.944 3.944 0 00.5.031 4 4 0 004-4v-4.911l11.693.9c.1.008.205.012.307.012a4 4 0 004-4V268h8zM500 260h-32v-8h32zM102.851 47.832l40 12A4.024 4.024 0 00144 60h252a16 16 0 000-32h-24V16a4 4 0 00-4-4h-80a4 4 0 000 8h76v8H144a4.024 4.024 0 00-1.149.168l-40 12a4 4 0 000 7.664zM204 52V36h152v16zm200-8a8.009 8.009 0 01-8 8h-32V36h32a8.009 8.009 0 018 8zm-208-8v16h-32V36zm-51.413 0H156v16h-11.413l-26.667-8z"></path><path d="M421.624 192.457L409.541 146a4 4 0 00-4.878-2.864l-55.489 14.433-2.109-8.106a4 4 0 00-4.877-2.864l-15.488 4.03a4 4 0 00-2.864 4.878l2.11 8.11-52.9 13.762a4 4 0 00-2.864 4.878l26.18 100.65a4 4 0 004.878 2.864l131.619-34.24a4 4 0 002.865-4.878zm-33.34 36.754l21.116-21.525-8 27.231-19.431 5.054zm-47.954-73.86l4.028 15.484-7.743 2.014-4.028-15.484zm-12.369 16.008l1.919 7.375a4 4 0 004.878 2.865l15.485-4.029a4 4 0 002.864-4.878l-1.919-7.378 51.618-13.426 10.506 40.391-29.247 29.808-61.817-23.675a4 4 0 00-4.286.934L290.24 227.6l-11.312-43.487zm12.139 57.777a4 4 0 00-2.653-1.946l-14.106-2.99 1.1-16.376 29.26 11.206-1.42 21.074-17.944 9.791 6.055-17.479a4 4 0 00-.292-3.28zm-37 47.885l-10.507-40.392 23.51-23.962-.973 14.452a4 4 0 003.16 4.182l13.067 2.774-7.959 22.973a4 4 0 005.695 4.821l28.955-15.8a4 4 0 002.075-3.242l1.4-20.808 17.723 6.787-9.066 15.441a4 4 0 004.456 5.9l30.97-8.057a4 4 0 002.831-2.743l9.082-30.9 9.455 36.348z"></path><path d="M377.88 199.172a16.006 16.006 0 0015.482-20.029 16 16 0 10-15.482 20.029zm-2.017-23.744a8 8 0 11-5.728 9.757 7.987 7.987 0 015.728-9.757zM126.221 221.653a4 4 0 00-5.464 4.619l2.209 9.1a24.5 24.5 0 0019.022 18.2l2.933.576a4.005 4.005 0 00.535.053 33.042 33.042 0 005.461 6.731 24.844 24.844 0 015.969 8.749 24.377 24.377 0 00-10.576-5.49l-9.11-2.141a4 4 0 00-4.579 5.5l3.754 8.575a24.508 24.508 0 0020.125 14.523l-1.481 5.608a19.852 19.852 0 006.088 20.108 24.386 24.386 0 00-10.119 7.613l-5.749 7.388a4 4 0 003.086 6.456l9.361.167h.431a24.507 24.507 0 0021.033-12.02 12.034 12.034 0 012.325 7.138l-.16 11.706a20.138 20.138 0 008.035 16.337l17.889 13.38a4 4 0 104.791-6.406l-17.886-13.378a12.106 12.106 0 01-4.829-9.823l.036-2.632 1.612-.516a24.5 24.5 0 0016.8-20.272l1.146-9.291a4 4 0 00-5.96-3.96l-8.121 4.658a24.381 24.381 0 00-8.877 8.812 19.974 19.974 0 00-13.415-8.427 12.074 12.074 0 01-10.024-9.882 24.5 24.5 0 0021.841-13.638l4.132-8.4a4 4 0 00-4.329-5.7l-9.2 1.733a24.3 24.3 0 00-8.285 3.222c.027-.545.053-1.09.053-1.638a32.95 32.95 0 00-10.324-23.882c-.4-.376-.776-.767-1.146-1.164a24.512 24.512 0 0018.67-10.565l5.293-7.721a4 4 0 00-3.469-6.258l-9.353.4a24.493 24.493 0 00-17.756 8.831 24.863 24.863 0 011.6-10.5l2.488-6.476 1.573-.852a24.5 24.5 0 0012.746-23.038l-.6-9.342a4 4 0 00-6.592-2.785l-7.115 6.083a24.5 24.5 0 00-7.635 25.2l.368 1.305-2.7 7.04a33.244 33.244 0 00-1.32 4.339 24.265 24.265 0 00-6.631-4.252zm17.479 51.262l-.546-1.247 1.325.311a16.484 16.484 0 0111.75 10.578 16.485 16.485 0 01-12.529-9.642zm14.123 57.074l-1.362-.024.837-1.075a16.47 16.47 0 0114.515-6.263 16.528 16.528 0 01-13.99 7.362zm40.977-10.137l1.181-.677-.167 1.351a16.482 16.482 0 01-9.25 12.821 16.484 16.484 0 018.236-13.495zm-22.371-34.575l1.338-.252-.6 1.221a16.484 16.484 0 01-12.947 9.074 16.485 16.485 0 0112.213-10.043zm-9.695-47.485l1.361-.058-.77 1.123a16.482 16.482 0 01-14.112 7.127 16.484 16.484 0 0113.525-8.192zm-8.793-40l1.034-.884.087 1.358a16.482 16.482 0 01-6.709 14.315 16.483 16.483 0 015.592-14.781zm-16.541 47.36a16.487 16.487 0 01-10.665-11.671l-.321-1.322 1.252.536a16.48 16.48 0 019.734 12.457zM109.014 217.115a4 4 0 005.972-5.322l-22.975-25.782a4 4 0 00-5.973 5.322z"></path><path d="M192.28 273a4 4 0 005.465 1.459l25.925-15a4 4 0 00-4.006-6.924l-25.925 15A4 4 0 00192.28 273zM94.819 167.576l34.559 7.5a4 4 0 101.7-7.818l-34.558-7.5a4 4 0 00-1.7 7.819zM92.994 181.048l27.887 8.126a4 4 0 002.238-7.681l-27.887-8.125a4 4 0 00-2.238 7.68zM115.17 367.328a30.17 30.17 0 1030.169 30.172 30.2 30.2 0 00-30.169-30.172zm4.881 8.548l-4.881 11.433-4.881-11.433a22.011 22.011 0 019.762 0zm-4.881 43.791a22.162 22.162 0 01-12.236-40.645l8.557 20.045a4 4 0 007.358 0l8.557-20.045a22.162 22.162 0 01-12.236 40.645zM165.387 131.953l64.5 10a4.057 4.057 0 00.618.047 4 4 0 00.608-7.953l-64.5-10a4 4 0 00-1.226 7.906zM161.084 148.958l64.836 9.5a4.153 4.153 0 00.585.042 4 4 0 00.575-7.958l-64.836-9.5a4 4 0 10-1.16 7.916zM158.455 163.688l35.739 15a4 4 0 103.1-7.376l-35.739-15a4 4 0 10-3.1 7.376zM216 219.75a4 4 0 000 8h16a4 4 0 000-8zM232 244a4 4 0 000-8h-16a4 4 0 000 8zM361.814 411.22l14.509-12.93a4 4 0 00.325-5.647L366 380.7a4 4 0 00-5.648-.325l-15.243 13.583a146.515 146.515 0 01-20.181-30.5l.708-1.084a31.86 31.86 0 002.609-30.013l-.14-.325A32.116 32.116 0 00314.7 316.94l-13.255-7.64a4 4 0 00-5.883 2.519l-3.621 14.864a32.119 32.119 0 001.671 20.121l.122.283a31.9 31.9 0 0023.5 18.856c.737 1.52 1.5 3.023 2.291 4.517a36.491 36.491 0 00-17.037-2.366l-.415.041a36.778 36.778 0 00-21.094 9.457l-13.135 12.071a4 4 0 00.636 6.368l15.264 9.229a36.813 36.813 0 0018.967 5.27 36.07 36.07 0 003.583-.178l.361-.036a36.533 36.533 0 0027.5-17.141q2.409 3.105 4.985 6.1l-14.617 13.026a4 4 0 00-.326 5.648l10.644 11.951a4 4 0 005.647.325l15.343-13.673 17.349 17.254a4 4 0 105.64-5.672zm-33.524-23.884a28.546 28.546 0 01-22.431 15.022l-.361.036a28.755 28.755 0 01-17.614-3.977l-10.7-6.47 9.209-8.463a28.728 28.728 0 0116.477-7.387l.415-.041a28.5 28.5 0 0124.9 10.286l.381.464zm-27.2-43.4l-.122-.283a24.055 24.055 0 01-1.25-15.075l2.357-9.682 8.637 4.976a24.074 24.074 0 0110.049 11.314l.139.324a23.857 23.857 0 01-.05 18.929 149.676 149.676 0 01-3.536-9.415 4 4 0 10-7.582 2.552c.983 2.923 2.058 5.8 3.2 8.642a23.954 23.954 0 01-11.845-12.282zm37.065 77.655l-5.323-5.972 29.863-26.613 5.323 5.973z"></path><path d="M382.735 348.205l-48 16a4 4 0 102.53 7.59l48-16a4 4 0 00-2.53-7.59zM424 364h-32a4 4 0 000 8h32a4 4 0 000-8zM424 348h-24a4 4 0 000 8h24a4 4 0 000-8zM156 384v44.667a4 4 0 004 4c.077 0 .155 0 .233-.007l80-4.667A4 4 0 00244 424v-40a4 4 0 00-4-4h-80a4 4 0 00-4 4zm8 20.3l8-.066v19.726l-8 .466zm56-.467v17.327l-8.138.475.113-17.735zM203.858 422.1l-7.858.46v-18.526l7.975-.067zm-15.858.926l-8 .467v-19.326l8-.067zm40-2.333v-16.926l8-.067v16.527zM236 388v7.7l-72 .6V388zM80 268h32a4 4 0 000-8H80a4 4 0 000 8zM80 284h16a4 4 0 000-8H80a4 4 0 000 8zM124 296a4 4 0 00-4-4H80a4 4 0 000 8h40a4 4 0 004-4z"></path></g><!----></svg>