<svg data-v-423bf9ae="" xmlns="http://www.w3.org/2000/svg" viewBox="0 0 445 95" class="iconLeft"><!----><!----><!----><g data-v-423bf9ae="" id="09690482-468c-4839-afe9-966a66e9ce37" fill="#000000" transform="matrix(4.332129844579322,0,0,4.332129844579322,73.9086125860124,7.456367860988031)"><path d="M0.38 3.08L0.42 3.64L1.01 3.64C1.69 3.64 1.72 3.67 1.72 4.14L1.72 11.26C1.72 11.82 1.69 11.87 0.99 11.87L0.62 11.87L0.63 12.42L4.24 12.42C8.68 12.42 9.80 9.31 9.80 7.39C9.80 5.91 9.17 4.47 7.85 3.70C6.83 3.11 5.64 3.08 4.16 3.08ZM2.86 11.23L2.86 4.40C2.86 3.81 2.98 3.74 3.43 3.74L3.95 3.74C7.21 3.74 8.54 5.85 8.54 7.83C8.54 9.70 7.64 11.87 4.05 11.87C2.88 11.87 2.86 11.82 2.86 11.23ZM10.79 11.51C10.79 12.26 11.49 12.57 12.08 12.57C12.70 12.57 13.36 12.17 13.72 11.68C14.01 12.04 14.17 12.31 14.66 12.66C14.70 12.64 15.18 12.36 15.50 12.15C15.60 12.10 15.62 12.04 15.62 12.00C15.62 11.96 15.60 11.91 15.50 11.89C14.69 11.66 14.59 11.21 14.59 10.61L14.59 7.99C14.59 6.97 13.68 6.87 13.36 6.87C11.34 6.87 10.91 8.13 10.91 8.44C10.91 8.61 10.95 8.95 11.23 8.95C11.34 8.95 11.68 8.81 11.68 8.58C11.68 8.43 11.59 8.22 11.54 7.97C11.54 7.97 11.69 7.53 12.67 7.53C13.52 7.53 13.61 7.98 13.61 8.53L13.61 9.37C12.03 9.37 10.79 10.36 10.79 11.51ZM11.77 11.10C11.77 10.49 12.45 9.74 13.61 9.74L13.61 11.05C13.61 11.35 13.44 11.82 12.61 11.82C12.00 11.82 11.77 11.48 11.77 11.10ZM17.16 4.10C17.16 4.27 17.50 4.73 17.75 4.73C17.91 4.73 18.35 4.31 18.35 4.12C18.35 3.89 17.91 3.51 17.75 3.51C17.57 3.51 17.16 3.88 17.16 4.10ZM16.11 7.15L16.13 7.57C16.56 7.49 16.83 7.46 16.90 7.46C17.05 7.46 17.11 7.55 17.11 7.91L17.11 11.65C17.11 11.94 17.00 11.97 16.30 11.97L16.17 11.97L16.17 12.42L19.21 12.42L19.21 11.97L18.96 11.97C18.13 11.97 18.09 11.93 18.09 11.59L18.09 6.73C17.32 6.94 16.73 7.06 16.11 7.15ZM19.68 2.58L19.71 3.05C19.98 3.00 20.47 2.91 20.51 2.91C20.73 2.91 20.76 3.02 20.76 3.61L20.76 11.59C20.76 11.94 20.59 11.97 20.13 11.97L19.82 11.97L19.82 12.42L22.88 12.42L22.88 11.97L22.64 11.97C21.90 11.97 21.74 11.94 21.74 11.59L21.74 2.25C21.06 2.38 20.40 2.48 19.68 2.58ZM23.00 15.41C23.00 15.76 23.21 16.04 23.56 16.04C24.05 16.04 24.57 16.00 26.01 12.82L28.14 8.12C28.43 7.46 28.41 7.38 28.90 7.38L29.23 7.38L29.23 6.93L26.95 6.93L26.95 7.38L27.15 7.38C27.58 7.38 27.76 7.39 27.76 7.57C27.76 7.71 27.57 8.16 27.30 8.75L26.42 10.74L25.23 8.06C25.16 7.90 25.06 7.70 25.06 7.57C25.06 7.39 25.23 7.38 25.55 7.38L25.79 7.38L25.82 6.93L23.14 6.93L23.17 7.38C23.90 7.38 23.81 7.41 24.15 8.13L25.90 11.90L25.48 12.71C24.63 14.36 24.22 14.85 23.94 14.85C23.83 14.85 23.60 14.83 23.53 14.83C23.24 14.83 23.00 14.99 23.00 15.41ZM31.00 15.36C31.00 15.67 31.51 16.03 32.09 16.03C32.45 16.03 32.75 15.95 33.03 15.81C33.56 15.53 34.27 14.80 34.51 14.39C34.79 13.93 34.87 13.40 34.87 12.45L34.87 4.28C34.87 3.65 34.99 3.64 35.48 3.64L35.92 3.64L35.95 3.08L32.59 3.08L32.59 3.64L33.11 3.64C33.68 3.64 33.74 3.68 33.74 4.14L33.74 12.75C33.74 13.93 33.61 15.26 32.83 15.26C32.41 15.26 32.28 14.49 31.86 14.49C31.56 14.49 31.00 14.97 31.00 15.36ZM36.68 9.69C36.68 11.10 37.59 12.63 39.48 12.63C41.27 12.63 42.39 11.41 42.39 9.84C42.39 8.61 41.80 6.80 39.45 6.80C37.53 6.80 36.68 8.23 36.68 9.69ZM37.80 9.35C37.80 7.98 38.51 7.28 39.33 7.28C40.33 7.28 41.22 8.11 41.22 9.80C41.22 10.96 40.81 12.08 39.66 12.08C38.51 12.08 37.80 10.64 37.80 9.35ZM42.91 7.42C43.11 7.41 43.26 7.38 43.37 7.38C43.57 7.38 43.64 7.43 43.64 7.73L43.64 10.49C43.64 11.55 43.89 12.63 45.29 12.63C46.24 12.63 47.08 11.72 47.08 11.72C47.14 12.07 47.17 12.39 47.18 12.71C47.80 12.54 48.29 12.39 48.90 12.26L48.90 11.82C48.61 11.90 48.40 11.97 48.27 11.97C48.06 11.97 48.02 11.90 48.02 10.86L48.02 6.79C47.25 6.92 46.72 6.99 46.10 7.03L46.14 7.46C46.16 7.45 46.56 7.39 46.76 7.39C46.94 7.39 47.04 7.43 47.04 7.81L47.04 11.23C47.04 11.23 46.72 11.76 45.78 11.76C44.73 11.76 44.62 11.12 44.62 10.29L44.62 6.79C43.92 6.92 43.36 6.96 42.91 7.00ZM49.38 7.20L49.42 7.63C49.71 7.57 50.15 7.48 50.27 7.48C50.44 7.48 50.47 7.60 50.47 7.98L50.47 11.40C50.47 11.94 50.43 11.97 49.85 11.97L49.59 11.97L49.59 12.42L52.93 12.42L52.93 11.97L52.33 11.97C51.52 11.97 51.45 11.91 51.45 11.40L51.45 9.03C51.45 8.48 52.15 8.04 52.60 8.04C52.79 8.04 52.93 8.13 52.93 8.36L52.93 8.54L53.16 8.62L53.69 7.24C53.69 7.24 53.51 6.89 52.92 6.89C52.11 6.89 51.46 8.26 51.42 8.32L51.42 6.73C49.66 7.17 49.97 7.08 49.38 7.20ZM54.17 11.97L54.18 12.42L56.91 12.42L56.94 11.97L56.76 11.97C55.92 11.97 55.92 11.93 55.92 11.49L55.92 8.12C55.92 8.12 56.76 7.67 57.43 7.67C58.06 7.67 58.34 7.94 58.34 8.74L58.34 11.55C58.34 11.94 58.25 11.97 57.86 11.97L57.54 11.97L57.55 12.42L60.16 12.42L60.17 11.97C59.51 11.97 59.32 11.97 59.32 11.55L59.32 9.14C59.32 8.04 59.30 6.89 57.99 6.89C56.87 6.89 56.10 7.69 55.87 7.78C55.87 7.27 55.89 7.13 55.92 6.79L54.19 7.14L54.19 7.57C54.57 7.49 54.61 7.46 54.73 7.46C54.92 7.46 54.94 7.59 54.94 8.16L54.94 11.49C54.94 11.94 54.94 11.97 54.31 11.97ZM60.79 11.51C60.79 12.26 61.49 12.57 62.08 12.57C62.69 12.57 63.35 12.17 63.71 11.68C64.01 12.04 64.16 12.31 64.65 12.66C64.69 12.64 65.17 12.36 65.49 12.15C65.59 12.10 65.62 12.04 65.62 12.00C65.62 11.96 65.59 11.91 65.49 11.89C64.68 11.66 64.58 11.21 64.58 10.61L64.58 7.99C64.58 6.97 63.67 6.87 63.35 6.87C61.33 6.87 60.90 8.13 60.90 8.44C60.90 8.61 60.94 8.95 61.22 8.95C61.33 8.95 61.67 8.81 61.67 8.58C61.67 8.43 61.59 8.22 61.53 7.97C61.53 7.97 61.68 7.53 62.66 7.53C63.52 7.53 63.60 7.98 63.60 8.53L63.60 9.37C62.02 9.37 60.79 10.36 60.79 11.51ZM61.77 11.10C61.77 10.49 62.44 9.74 63.60 9.74L63.60 11.05C63.60 11.35 63.43 11.82 62.61 11.82C61.99 11.82 61.77 11.48 61.77 11.10ZM65.97 2.58L66.00 3.05C66.26 3.00 66.75 2.91 66.79 2.91C67.02 2.91 67.05 3.02 67.05 3.61L67.05 11.59C67.05 11.94 66.88 11.97 66.42 11.97L66.11 11.97L66.11 12.42L69.16 12.42L69.16 11.97L68.92 11.97C68.18 11.97 68.03 11.94 68.03 11.59L68.03 2.25C67.34 2.38 66.68 2.48 65.97 2.58ZM70.83 4.10C70.83 4.27 71.16 4.73 71.41 4.73C71.57 4.73 72.02 4.31 72.02 4.12C72.02 3.89 71.57 3.51 71.41 3.51C71.23 3.51 70.83 3.88 70.83 4.10ZM69.78 7.15L69.79 7.57C70.22 7.49 70.49 7.46 70.56 7.46C70.71 7.46 70.77 7.55 70.77 7.91L70.77 11.65C70.77 11.94 70.66 11.97 69.96 11.97L69.83 11.97L69.83 12.42L72.87 12.42L72.87 11.97L72.62 11.97C71.79 11.97 71.75 11.93 71.75 11.59L71.75 6.73C70.98 6.94 70.39 7.06 69.78 7.15ZM73.35 11.97L73.36 12.42L76.09 12.42L76.12 11.97L75.94 11.97C75.10 11.97 75.10 11.93 75.10 11.49L75.10 8.12C75.10 8.12 75.94 7.67 76.61 7.67C77.24 7.67 77.52 7.94 77.52 8.74L77.52 11.55C77.52 11.94 77.43 11.97 77.04 11.97L76.72 11.97L76.73 12.42L79.34 12.42L79.35 11.97C78.69 11.97 78.50 11.97 78.50 11.55L78.50 9.14C78.50 8.04 78.48 6.89 77.17 6.89C76.05 6.89 75.28 7.69 75.05 7.78C75.05 7.27 75.07 7.13 75.10 6.79L73.37 7.14L73.37 7.57C73.75 7.49 73.79 7.46 73.91 7.46C74.10 7.46 74.12 7.59 74.12 8.16L74.12 11.49C74.12 11.94 74.12 11.97 73.49 11.97ZM79.48 14.56C79.48 15.62 80.71 16.10 81.76 16.10C84.01 16.10 85.53 14.70 85.53 13.38C85.53 12.42 84.81 11.82 82.98 11.82C82.64 11.82 82.32 11.83 82.03 11.83L81.97 11.83C81.52 11.83 81.06 11.83 81.06 11.48C81.06 11.17 81.52 10.98 82.26 10.98C83.64 10.98 84.56 10.05 84.56 9.03C84.56 8.37 84.24 8.18 84.24 8.06C84.24 8.02 84.32 8.02 84.62 8.02L84.84 8.02C85.37 8.02 85.40 7.92 85.40 7.27L85.40 6.92L85.11 6.92C84.98 7.13 84.99 7.39 84.31 7.39C83.40 7.39 83.44 6.82 82.26 6.82C81.12 6.82 80.05 7.78 80.05 8.93C80.05 10.44 81.37 10.84 81.37 10.84C81.37 10.84 80.07 11.10 80.07 11.83C80.07 12.53 81.42 12.70 81.42 12.70C81.42 12.70 79.48 13.15 79.48 14.56ZM80.56 14.39C80.56 13.62 81.44 12.73 82.80 12.73C83.66 12.73 84.55 12.88 84.55 13.76C84.55 14.90 83.29 15.46 82.18 15.46C81.03 15.46 80.56 14.97 80.56 14.39ZM81.21 8.83C81.21 7.84 81.70 7.34 82.22 7.34C82.78 7.34 83.37 7.92 83.37 9.07C83.37 10.07 82.88 10.54 82.38 10.54C81.82 10.54 81.21 9.97 81.21 8.83Z"></path></g><defs data-v-423bf9ae=""><linearGradient data-v-423bf9ae="" gradientTransform="rotate(25)" id="789a3b97-5a11-4746-a9f0-ae57cb001ee2" x1="0%" y1="0%" x2="100%" y2="0%"><stop data-v-423bf9ae="" offset="0%" style="stop-color: rgb(1, 105, 90); stop-opacity: 1;"></stop><stop data-v-423bf9ae="" offset="100%" style="stop-color: rgb(44, 194, 111); stop-opacity: 1;"></stop></linearGradient></defs><g data-v-423bf9ae="" id="c62c1d96-7532-4bfc-bdd8-9f71e02685e5" transform="matrix(1.0241924709743924,0,0,1.0241924709743924,0.2225865809405363,0.7963703158689626)" stroke="none" fill="url(#789a3b97-5a11-4746-a9f0-ae57cb001ee2)"><path d="M54 47.957v-6.903c0-1.077-.738-2.153-1.815-2.153H29.164c-1.238-3.068-.602-6.726 1.212-10.042 3.594.894 7.405.646 10.792-.879 3.558-2.066 6.114-5.6 7.317-9.523.143-.466-.166-.919-.603-1.062-8.306-2.717-16.194 1.249-19.064 9.309-2.444 3.893-3.382 8.355-2.238 12.197H1.855C.779 38.901 0 39.978 0 41.054v7.467c0 1.077.779 2.38 1.855 2.38H52c1.991 0 2.652-1.759 2-2.944zM50.044 52.901H4.489c-1.323 0-2.002 1.054-1.812 2.24 1.915 11.966 3.829 23.673 5.744 35.64.13.813 1.046 1.12 1.812 1.12h33.332c.947.519 2.197.347 2.504-.89a1.15 1.15 0 00.152-.842c1.878-11.736 3.757-23.317 5.636-35.059.189-1.185-.49-2.209-1.813-2.209z"></path><path d="M24.685 29.292c.556.236 1.372.222 1.667-.438 2.379-5.322 2.994-11.385 1.159-16.945a1.305 1.305 0 00-.104-.233c-.007-.02-.01-.039-.019-.058-2.304-5.17-6.87-9.273-12.07-11.48-.556-.236-1.372-.222-1.667.438-5.171 11.566-.698 23.739 11.034 28.716z"></path></g><!----></svg>